<?xml version="1.0" encoding="UTF-8" standalone="no"?>
<svg
   xml:space="preserve"
   viewBox="0 0 40 40"
   version="1.1"
   id="svg11"
   sodipodi:docname="2021_Facebook_icon.svg"
   inkscape:version="1.1.2 (b8e25be833, 2022-02-05)"
   xmlns:inkscape="http://www.inkscape.org/namespaces/inkscape"
   xmlns:sodipodi="http://sodipodi.sourceforge.net/DTD/sodipodi-0.dtd"
   xmlns="http://www.w3.org/2000/svg"
   xmlns:svg="http://www.w3.org/2000/svg"><defs
   id="defs15" /><sodipodi:namedview
   id="namedview13"
   pagecolor="#505050"
   bordercolor="#eeeeee"
   borderopacity="1"
   inkscape:pageshadow="0"
   inkscape:pageopacity="0"
   inkscape:pagecheckerboard="0"
   showgrid="false"
   inkscape:zoom="16"
   inkscape:cx="17.5"
   inkscape:cy="16.8125"
   inkscape:window-width="2560"
   inkscape:window-height="1334"
   inkscape:window-x="-11"
   inkscape:window-y="-11"
   inkscape:window-maximized="1"
   inkscape:current-layer="svg11" />
  <linearGradient
   id="a"
   x1="-277.375"
   x2="-277.375"
   y1="406.6018"
   y2="407.5726"
   gradientTransform="matrix(40,0,0,-39.7778,11115.001,16212.334)"
   gradientUnits="userSpaceOnUse">
    <stop
   offset="0"
   stop-color="#0062e0"
   id="stop2" />
    <stop
   offset="1"
   stop-color="#19afff"
   id="stop4" />
  </linearGradient>
  <path
   id="path1296"
   style="fill:#ffffff;stroke-width:1"
   d="M 20,0.0995 C 9,0.0995 0,9.0995495 0,20.09961 0,29.999664 7.1992188,38.200491 16.699219,39.9005 l 0.101562,-0.08398 V 25.69925 h -5 v -5.59964 h 5 v -4.400415 c 0,-5.000028 3.198828,-7.7988709 7.798828,-7.7988709 1.4,1e-7 3.000391,0.1984387 4.400391,0.3984398 v 5.1015901 h -2.599609 c -2.4,0 -3,1.198835 -3,2.798844 v 3.900412 h 5.298828 l -0.898438,5.59964 h -4.40039 V 39.880969 C 32.850743,38.141394 40,29.964808 40,20.09961 40,9.0995495 31,0.0995 20,0.0995 Z" />
  
</svg>
