<?xml version="1.0" encoding="UTF-8" standalone="no"?>
<!-- Created with Inkscape (http://www.inkscape.org/) -->

<svg
   width="200.00003mm"
   height="200.00021mm"
   viewBox="0 0 200.00003 200.00021"
   version="1.1"
   id="svg5"
   xmlns:xlink="http://www.w3.org/1999/xlink"
   xmlns="http://www.w3.org/2000/svg"
   xmlns:svg="http://www.w3.org/2000/svg">
  <defs
     id="defs2">
    <radialGradient
       id="f"
       cx="158.429"
       cy="578.08801"
       r="52.351501"
       xlink:href="#a"
       gradientUnits="userSpaceOnUse"
       gradientTransform="matrix(0,-4.03418,4.28018,0,-2332.2273,942.2356)"
       fx="158.429"
       fy="578.08801" />
    <linearGradient
       id="c">
      <stop
         offset="0"
         stop-color="#780cff"
         id="stop11" />
      <stop
         stop-color="#820bff"
         offset="1"
         stop-opacity="0"
         id="stop13" />
    </linearGradient>
    <linearGradient
       id="a">
      <stop
         offset="0"
         stop-color="#fc0"
         id="stop21" />
      <stop
         offset=".1242"
         stop-color="#fc0"
         id="stop23" />
      <stop
         offset=".5672"
         stop-color="#fe4a05"
         id="stop25" />
      <stop
         offset=".6942"
         stop-color="#ff0f3f"
         id="stop27" />
      <stop
         offset="1"
         stop-color="#fe0657"
         stop-opacity="0"
         id="stop29" />
    </linearGradient>
  </defs>
  <g
     id="layer1"
     transform="translate(-73.527098,-80.134191)">
    <g
       id="g46"
       transform="translate(-61.262718,-2.7877568)">
      <path
         id="path42"
         style="fill:#ffffff;stroke-width:1"
         d="m 234.82254,82.921948 c -41.74908,0 -53.95909,0.04332 -56.33248,0.240235 -8.56759,0.712366 -13.89882,2.061827 -19.70705,4.954302 -4.47603,2.223347 -8.00627,4.800272 -11.49025,8.412897 -6.34492,6.588248 -10.19035,14.693438 -11.58243,24.328148 -0.67676,4.67733 -0.87369,5.63137 -0.91367,29.52269 -0.0154,7.96378 0,18.44465 0,32.50277 0,41.72664 0.0461,53.92747 0.24609,56.29693 0.69218,8.33916 1.99963,13.58603 4.76836,19.32502 5.29135,10.98552 15.39685,19.23218 27.30238,22.3094 4.12233,1.0616 8.67528,1.64656 14.52032,1.92344 2.4765,0.10772 27.71788,0.18438 52.97467,0.18438 25.25687,0 50.51368,-0.0305 52.92857,-0.15352 6.76801,-0.31854 10.69805,-0.84633 15.04338,-1.96953 11.9824,-3.09257 21.90385,-11.21647 27.30276,-22.35588 2.71491,-5.60051 4.09144,-11.04705 4.71446,-18.95081 0.1353,-1.72316 0.19219,-29.19794 0.19219,-56.6356 0,-27.44243 -0.0615,-54.86628 -0.19688,-56.58952 -0.63065,-8.03143 -2.00725,-13.43202 -4.80977,-19.14025 -2.29954,-4.67271 -4.85281,-8.162214 -8.55978,-11.730089 -6.61569,-6.320586 -14.70678,-10.166956 -24.34807,-11.557824 -4.6715,-0.675478 -5.60184,-0.875689 -29.50511,-0.917189 z m -0.0153,25.680502 h 0.0231 c 20.17529,8e-5 22.70737,0.0883 30.63557,0.44882 7.91638,0.36223 13.3231,1.61481 18.06369,3.45235 4.8954,1.89634 9.03159,4.43507 13.16799,8.56837 4.13632,4.1302 6.67694,8.27605 8.58243,13.16329 1.82801,4.72464 3.08325,10.12384 3.45508,18.0344 0.35626,7.92605 0.44922,10.45867 0.44922,30.63909 0,20.18035 -0.093,22.70686 -0.44922,30.63284 -0.37183,7.90747 -1.62707,13.30856 -3.45508,18.03479 -1.90549,4.88565 -4.44611,9.03114 -8.58243,13.16134 -4.13171,4.1333 -8.27441,6.6784 -13.16369,8.57619 -4.73122,1.83761 -10.14099,3.09011 -18.05744,3.45234 -7.93188,0.36072 -10.45859,0.44883 -30.6555,0.44883 -20.19381,0 -22.72667,-0.0883 -30.65863,-0.44883 -7.91479,-0.3623 -13.31997,-1.61482 -18.05119,-3.45234 -4.88769,-1.89786 -9.03659,-4.44289 -13.16837,-8.57619 -4.13481,-4.1302 -6.6753,-8.27566 -8.57618,-13.1629 -1.83731,-4.72464 -3.09057,-10.12423 -3.45469,-18.03479 -0.35936,-7.92597 -0.44922,-10.45085 -0.44922,-30.63128 0,-20.18035 0.0929,-22.71428 0.44765,-30.64026 0.35626,-7.90746 1.61111,-13.30856 3.45469,-18.03479 1.90549,-4.88565 4.44612,-9.03146 8.58243,-13.16173 4.13322,-4.13171 8.28228,-6.67052 13.17307,-8.56837 4.72819,-1.83761 10.13169,-3.09012 18.04807,-3.45235 7.9282,-0.36054 10.46959,-0.44874 30.6387,-0.44882 z m -6.64766,13.37188 c -13.85917,0.0156 -16.51753,0.10835 -23.37737,0.41797 -7.2502,0.3329 -11.18696,1.54036 -13.80822,2.56211 -3.47022,1.3499 -5.94898,2.95979 -8.55157,5.56056 -2.60266,2.60069 -4.21707,5.07768 -5.56485,8.54532 -1.01783,2.61929 -2.22901,6.5512 -2.56055,13.79611 -0.35634,7.83308 -0.42773,10.17398 -0.42773,30.01683 0,19.84291 0.0714,22.19578 0.42773,30.02893 0.32995,7.24484 1.54272,11.17718 2.56055,13.79337 1.35095,3.46924 2.96219,5.93995 5.56485,8.54064 2.60259,2.6007 5.08135,4.21063 8.55157,5.55742 2.62284,1.01708 6.55802,2.22739 13.80822,2.56173 7.83897,0.35603 10.19201,0.43359 30.04808,0.43359 19.85456,0 22.20918,-0.0776 30.04808,-0.43359 7.25027,-0.33132 11.18849,-1.5384 13.80665,-2.56016 3.47172,-1.3468 5.94274,-2.95705 8.54532,-5.55782 2.60266,-2.59911 4.21707,-5.06791 5.56485,-8.53556 1.01783,-2.61619 2.22901,-6.54853 2.56055,-13.79337 0.35633,-7.83307 0.43399,-10.18599 0.43399,-30.01644 0,-19.83052 -0.0777,-22.18375 -0.43399,-30.01683 -0.32995,-7.2449 -1.54272,-11.17678 -2.56055,-13.79298 -1.35096,-3.46756 -2.96219,-5.94455 -5.56485,-8.54532 -2.60107,-2.60069 -5.07511,-4.21063 -8.54532,-5.55743 -2.62126,-1.01707 -6.55638,-2.22767 -13.80665,-2.55898 -7.84049,-0.35603 -10.19352,-0.42735 -30.04808,-0.42735 -2.48179,0 -4.69077,-0.003 -6.67071,0 z m 46.36411,12.35353 c 4.92646,0 8.92345,3.99405 8.92345,8.9168 0,4.92285 -3.99667,8.91682 -8.92306,8.91682 -4.92647,0 -8.92384,-3.99397 -8.92384,-8.91682 0,-4.92426 3.99737,-8.91367 8.92384,-8.91367 z m -39.69497,10.4215 h 0.002 c 21.08853,7.5e-4 38.18168,17.08633 38.18168,38.15941 0,21.07361 -17.09243,38.1516 -38.18168,38.1516 -21.08926,0 -38.18754,-17.07799 -38.18754,-38.1516 0,-21.07308 17.09744,-38.15857 38.18597,-38.15941 z m 0.002,13.39063 c -13.69022,0 -24.78714,11.0887 -24.78714,24.76878 0,13.67858 11.09692,24.76877 24.78714,24.76877 13.6887,0 24.78713,-11.09019 24.78713,-24.76877 0,-13.68008 -11.09843,-24.76878 -24.78713,-24.76878 z" />
    </g>
  </g>
</svg>
