<?xml version="1.0" encoding="UTF-8" standalone="no"?>
<!-- Created with Inkscape (http://www.inkscape.org/) -->

<svg
   version="1.1"
   id="svg2"
   width="548.79999"
   height="548.79999"
   viewBox="0 0 548.79999 548.79999"
   sodipodi:docname="logo.svg"
   inkscape:version="1.1.2 (b8e25be833, 2022-02-05)"
   xmlns:inkscape="http://www.inkscape.org/namespaces/inkscape"
   xmlns:sodipodi="http://sodipodi.sourceforge.net/DTD/sodipodi-0.dtd"
   xmlns="http://www.w3.org/2000/svg"
   xmlns:svg="http://www.w3.org/2000/svg">
  <defs
     id="defs6">
    <clipPath
       id="clip0">
      <rect
         x="470"
         y="207"
         width="1986"
         height="2026"
         id="rect3879" />
    </clipPath>
  </defs>
  <sodipodi:namedview
     id="namedview4"
     pagecolor="#505050"
     bordercolor="#eeeeee"
     borderopacity="1"
     inkscape:pageshadow="0"
     inkscape:pageopacity="0"
     inkscape:pagecheckerboard="0"
     showgrid="true"
     inkscape:zoom="1.4142136"
     inkscape:cx="434.16356"
     inkscape:cy="332.34019"
     inkscape:window-width="2560"
     inkscape:window-height="1334"
     inkscape:window-x="-11"
     inkscape:window-y="-11"
     inkscape:window-maximized="1"
     inkscape:current-layer="g8">
    <inkscape:grid
       type="xygrid"
       id="grid1252"
       spacingx="274.4"
       spacingy="274.4"
       empspacing="1"
       empcolor="#ff4e3f"
       empopacity="0.60392157"
       snapvisiblegridlinesonly="false"
       dotted="false"
       visible="false"
       enabled="false" />
  </sodipodi:namedview>
  <g
     inkscape:groupmode="layer"
     inkscape:label="Image"
     id="g8">
    <path
       style="color:#000000;fill:#ffffff;stroke-linecap:round;stroke-linejoin:round;-inkscape-stroke:none"
       d="m 274.40039,0.46875 c -151.24688,0 -273.93164,122.68476 -273.93164,273.93164 0,151.24688 122.68476,273.93164 273.93164,273.93164 151.24688,0 273.93164,-122.68476 273.93164,-273.93164 0,-151.24688 -122.68476,-273.93164 -273.93164,-273.93164 z m 0,7 c 147.4638,0 266.93164,119.46784 266.93164,266.93164 0,147.4638 -119.46784,266.93164 -266.93164,266.93164 -147.4638,0 -266.93164,-119.46784 -266.93164,-266.93164 0,-147.4638 119.46784,-266.93164 266.93164,-266.93164 z"
       id="path849" />
    <path
       style="color:#000000;fill:#ffffff;stroke-linecap:round;stroke-linejoin:round;-inkscape-stroke:none"
       d="m 274.40039,20.783203 c -140.04432,0 -253.617187,113.572867 -253.617187,253.617187 0,140.04433 113.572867,253.61523 253.617187,253.61523 140.04433,0 253.61523,-113.5709 253.61523,-253.61523 0,-140.04432 -113.5709,-253.617187 -253.61523,-253.617187 z m 0,4 c 137.88257,0 249.61523,111.734617 249.61523,249.617187 0,137.88257 -111.73266,249.61523 -249.61523,249.61523 -137.88257,0 -249.617187,-111.73266 -249.617187,-249.61523 0,-137.88257 111.734617,-249.617187 249.617187,-249.617187 z"
       id="circle1131" />
    <path
       style="color:#000000;fill:#ffffff;stroke-linecap:round;stroke-linejoin:round;-inkscape-stroke:none"
       d="m 274.40039,94.203125 c -99.50843,0 -180.197265,80.688835 -180.197265,180.197265 0,99.50844 80.688835,180.19727 180.197265,180.19727 99.50844,0 180.19727,-80.68883 180.19727,-180.19727 0,-99.50843 -80.68883,-180.197265 -180.19727,-180.197265 z m 0,2 c 98.42756,0 178.19727,79.769715 178.19727,178.197265 0,98.42756 -79.76971,178.19727 -178.19727,178.19727 -98.42755,0 -178.197265,-79.76971 -178.197265,-178.19727 0,-98.42755 79.769715,-178.197265 178.197265,-178.197265 z"
       id="circle1215" />
    <path
       id="circle1217"
       style="color:#000000;fill:#ffffff;stroke-linecap:round;stroke-linejoin:round;-inkscape-stroke:none"
       d="M 274.40039 104.42578 C 180.54986 104.42578 104.42578 180.54986 104.42578 274.40039 C 104.42578 368.25092 180.54986 444.375 274.40039 444.375 C 368.25092 444.375 444.375 368.25092 444.375 274.40039 C 444.375 180.54986 368.25092 104.42578 274.40039 104.42578 z M 274.40039 108.42578 C 356.19903 108.42578 424.0979 167.56701 437.80469 245.42578 L 110.99609 245.42578 C 124.70288 167.56701 192.60175 108.42578 274.40039 108.42578 z M 110.50781 248.16602 L 110.50781 251.42578 L 438.75586 251.42578 C 439.79609 258.93903 440.375 266.60022 440.375 274.40039 C 440.375 364.91529 367.96618 438.41853 277.90039 440.28711 L 277.90039 252.46289 L 270.90039 252.46289 L 270.90039 440.28711 C 180.8346 438.41853 108.42578 364.91529 108.42578 274.40039 C 108.42578 265.47055 109.1511 256.71316 110.50781 248.16602 z " />
    <path
       id="path1641"
       style="fill:#ffffff;stroke:none;stroke-width:1px;stroke-linecap:butt;stroke-linejoin:miter;stroke-opacity:1"
       d="M 244.12695 141.86328 C 221.58791 141.86328 216.9035 149.24414 203.68945 149.24414 C 192.37182 149.24414 191.53539 148.62993 191.52539 148.45312 C 191.50003 148.60307 190.65432 153.49391 188.04297 153.97266 C 185.39132 154.4588 179.86719 154.32617 179.86719 154.32617 L 175.66992 160.86719 L 165.63672 160.86719 L 128.67578 216.6875 C 128.67578 216.6875 129.05078 219.75 130.11328 222.3125 C 131.17578 224.875 132.92578 227.0625 132.92578 227.0625 L 261.45117 223.62305 C 261.45117 223.62305 262.07022 235.02539 274.40039 235.02539 C 286.73056 235.02539 287.34961 223.62305 287.34961 223.62305 L 415.875 227.0625 C 415.875 227.0625 417.625 224.875 418.6875 222.3125 C 419.75 219.75 420.125 216.6875 420.125 216.6875 L 383.16406 160.86719 L 373.13086 160.86719 L 368.93359 154.32617 C 368.93359 154.32617 363.40946 154.4588 360.75781 153.97266 C 358.14646 153.49391 357.30075 148.60307 357.27539 148.45312 C 357.26539 148.62993 356.42896 149.24414 345.11133 149.24414 C 331.89728 149.24414 327.21286 141.86328 304.67383 141.86328 C 282.13481 141.86328 274.40039 154.8125 274.40039 154.8125 C 274.40039 154.8125 266.66597 141.86328 244.12695 141.86328 z M 246.17578 144.8125 C 261.42578 144.8125 271.95703 157.8125 271.95703 157.8125 L 271.95703 211.34375 C 271.95703 211.34375 272.30078 211.8125 265.23828 205.5 C 258.17578 199.1875 245.73828 198.6875 237.17578 198.6875 C 228.61328 198.6875 215.36328 201.625 211.92578 204.4375 C 208.48828 207.25 193.05078 209.5 183.05078 209.8125 C 173.05078 210.125 166.55078 207.125 166.55078 207.125 L 194.98828 151.6875 L 212.23828 151.6875 C 212.23828 151.6875 230.92578 144.8125 246.17578 144.8125 z M 302.625 144.8125 C 317.875 144.8125 336.5625 151.6875 336.5625 151.6875 L 353.8125 151.6875 L 382.25 207.125 C 382.25 207.125 375.75 210.125 365.75 209.8125 C 355.75 209.5 340.3125 207.25 336.875 204.4375 C 333.4375 201.625 320.1875 198.6875 311.625 198.6875 C 303.0625 198.6875 290.625 199.1875 283.5625 205.5 C 276.5 211.8125 276.84375 211.34375 276.84375 211.34375 L 276.84375 157.8125 C 276.84375 157.8125 287.375 144.8125 302.625 144.8125 z M 181.73828 157.625 L 188.86328 157.625 L 162.39453 209.78125 L 163.91406 210.62891 L 161.34961 215.62305 C 161.34961 215.62305 159.11887 214.89413 158.21289 214.66211 C 157.30691 214.43009 155.5393 214.34178 154.93164 213.95508 C 154.32397 213.56839 153.30664 212.16602 153.30664 212.16602 L 181.73828 157.625 z M 359.9375 157.625 L 367.0625 157.625 L 395.49414 212.16602 C 395.49414 212.16602 394.47681 213.56839 393.86914 213.95508 C 393.26147 214.34178 391.49387 214.43009 390.58789 214.66211 C 389.68191 214.89413 387.45117 215.62305 387.45117 215.62305 L 384.88672 210.62891 L 386.40625 209.78125 L 359.9375 157.625 z M 237.67578 201.84375 C 250.01953 201.84375 257.56055 204.59766 257.56055 204.59766 C 257.56055 204.59766 258.27906 204.79639 258.14648 205.27148 C 258.01389 205.74655 257.26953 205.3125 257.26953 205.3125 C 257.26953 205.3125 256.39453 203.28125 239.36328 203.28125 C 222.33203 203.28125 212.05078 207.84375 212.05078 207.84375 L 202.89258 211.11523 C 202.89258 211.11523 197.16865 213.41406 196.43945 213.41406 C 195.71025 213.41406 190.05492 213.87825 189.06055 214.25391 C 188.06619 214.62956 184.72881 215.55653 181.90039 215.49023 C 179.07196 215.42393 176.75195 215.60156 176.75195 215.60156 C 176.75195 215.60156 171.16144 215.71185 169.2832 215.11523 C 167.40495 214.51861 165.12893 213.34766 165.12891 213.34766 L 167.05078 210.82812 C 167.05078 210.82813 171.64806 212.66215 178.56445 212.30859 C 185.48084 211.95504 197.01953 212.65625 208.23828 208.28125 C 219.45703 203.90625 225.33203 201.84375 237.67578 201.84375 z M 311.125 201.84375 C 323.46875 201.84375 329.34375 203.90625 340.5625 208.28125 C 351.78125 212.65625 363.31994 211.95504 370.23633 212.30859 C 377.15272 212.66215 381.75 210.82813 381.75 210.82812 L 383.67188 213.34766 C 383.67185 213.34766 381.39583 214.51861 379.51758 215.11523 C 377.63933 215.71185 372.04883 215.60156 372.04883 215.60156 C 372.04883 215.60156 369.72882 215.42393 366.90039 215.49023 C 364.07197 215.55653 360.73459 214.62956 359.74023 214.25391 C 358.74586 213.87825 353.09053 213.41406 352.36133 213.41406 C 351.63213 213.41406 345.9082 211.11523 345.9082 211.11523 L 336.75 207.84375 C 336.75 207.84375 326.46875 203.28125 309.4375 203.28125 C 292.40625 203.28125 291.53125 205.3125 291.53125 205.3125 C 291.53125 205.3125 290.78689 205.74655 290.6543 205.27148 C 290.52172 204.79639 291.24023 204.59766 291.24023 204.59766 C 291.24023 204.59766 298.78125 201.84375 311.125 201.84375 z M 240.76758 205.85742 C 264.23468 206.07839 271.72605 215.37941 271.81445 216.41797 C 271.90284 217.45653 274.40039 217.30273 274.40039 217.30273 C 274.40039 217.30273 276.89794 217.45653 276.98633 216.41797 C 277.07473 215.37941 284.5661 206.07839 308.0332 205.85742 C 331.50031 205.63645 346.61523 214.12109 346.61523 214.12109 C 346.61523 214.12109 353.31118 216.67339 357.05664 216.79492 C 360.8021 216.91645 357.08984 217.48047 357.08984 217.48047 C 357.08984 217.48047 341.75 216.25 333.0625 212.5625 C 324.375 208.875 310.1875 208.8125 310.1875 208.8125 C 310.1875 208.8125 298.8125 209.1875 289.0625 211.25 C 279.3125 213.3125 274.40039 220.17969 274.40039 220.17969 C 274.40039 220.17969 269.48828 213.3125 259.73828 211.25 C 249.98828 209.1875 238.61328 208.8125 238.61328 208.8125 C 238.61328 208.8125 224.42578 208.875 215.73828 212.5625 C 207.05078 216.25 191.71094 217.48047 191.71094 217.48047 C 191.71094 217.48047 187.99868 216.91645 191.74414 216.79492 C 195.4896 216.67339 202.18555 214.12109 202.18555 214.12109 C 202.18555 214.12109 217.30047 205.63645 240.76758 205.85742 z M 133.14453 220.26367 L 242.68945 220.26367 L 242.68359 220.80469 L 135.06055 223.58203 L 133.14453 220.26367 z M 306.11133 220.26367 L 415.65625 220.26367 L 413.74023 223.58203 L 306.11719 220.80469 L 306.11133 220.26367 z M 263.19922 220.42578 C 263.40983 220.43225 263.65695 220.64366 263.74805 220.75 C 263.88063 220.90468 266.53255 222.64964 266.9082 224.85938 C 267.28385 227.06909 268.25574 229.39016 270.44336 230.25195 C 272.63097 231.11373 274.40039 230.80469 274.40039 230.80469 C 274.40039 230.80469 276.16981 231.11373 278.35742 230.25195 C 280.54504 229.39016 281.51693 227.06909 281.89258 224.85938 C 282.26823 222.64964 284.92015 220.90468 285.05273 220.75 C 285.14383 220.64366 285.39095 220.43225 285.60156 220.42578 C 285.69726 220.42278 285.78551 220.46178 285.84766 220.57227 C 286.04653 220.92583 285.69336 221.14844 285.69336 221.14844 L 283.08594 223.91016 C 283.08594 223.91016 283.46189 228.06399 281.38477 230.05273 C 279.30764 232.04147 274.40039 231.93164 274.40039 231.93164 C 274.40039 231.93164 269.49315 232.04147 267.41602 230.05273 C 265.3389 228.06399 265.71484 223.91016 265.71484 223.91016 L 263.10742 221.14844 C 263.10742 221.14844 262.75426 220.92583 262.95312 220.57227 C 263.01528 220.46178 263.10352 220.42278 263.19922 220.42578 z " />
    <path
       id="path3291"
       style="fill:#ffffff;stroke:none;stroke-width:1px;stroke-linecap:butt;stroke-linejoin:miter;stroke-opacity:1"
       d="M 352.375 256.3125 C 345.9299 256.3125 345.75977 262.44727 345.75977 262.44727 C 345.75977 262.44727 337.62891 262.31312 337.62891 269.05273 C 337.62891 275.79233 345.05273 275.85938 345.05273 275.85938 L 345.05273 299.9375 L 319 299.9375 C 319 299.9375 318.9375 292.34375 312.5625 292.34375 C 306.1875 292.34375 306.375 301.5 306.375 301.5 C 306.375 301.5 300.125 300.78125 300.125 308 C 300.125 315.21875 306.03125 314.625 306.03125 314.625 C 306.03125 314.625 306.09375 322.6875 312.9375 322.6875 C 319.78125 322.6875 319.15625 313.75 319.15625 313.75 L 344.9375 313.75 L 344.9375 395.90625 C 344.9375 395.90625 342.84375 395.625 340.5 397.03125 C 338.15625 398.4375 337.625 400.46875 337.625 402.5 C 337.625 404.53125 338.65625 406.09375 340.125 407.78125 C 341.59375 409.46875 345.9375 409.125 345.9375 409.125 C 345.9375 409.125 346.125 411.5625 347.75 413.375 C 349.375 415.1875 352.375 415.125 352.375 415.125 C 352.375 415.125 355.375 415.1875 357 413.375 C 358.625 411.5625 358.8125 409.125 358.8125 409.125 C 358.8125 409.125 363.15625 409.46875 364.625 407.78125 C 366.09375 406.09375 367.125 404.53125 367.125 402.5 C 367.125 400.46875 366.59375 398.4375 364.25 397.03125 C 361.90625 395.625 359.8125 395.90625 359.8125 395.90625 L 359.8125 313.75 L 385.59375 313.75 C 385.59375 313.75 384.96875 322.6875 391.8125 322.6875 C 398.65625 322.6875 398.71875 314.625 398.71875 314.625 C 398.71875 314.625 404.625 315.21875 404.625 308 C 404.625 300.78125 398.375 301.5 398.375 301.5 C 398.375 301.5 398.5625 292.34375 392.1875 292.34375 C 385.8125 292.34375 385.75 299.9375 385.75 299.9375 L 359.69727 299.9375 L 359.69727 275.85938 C 359.69727 275.85938 367.12109 275.79429 367.12109 269.05469 C 367.12109 262.31508 358.99023 262.44727 358.99023 262.44727 C 358.99023 262.44727 358.8201 256.3125 352.375 256.3125 z " />
    <g
       style="overflow:hidden;fill:#0000ff;stroke-width:4.18911"
       id="g4067"
       transform="matrix(0.24134996,0,0,0.23610756,34.75035,35.505319)">
      <g
         clip-path="url(#clip0)"
         transform="translate(-470,-207)"
         id="g4000"
         style="fill:#ffffff;stroke-width:4.18911">
        <path
           d="m 495.78,990.121 c 2.059,-8.981 6.446,-17.997 13.16,-27.048 3.147,-4.18 4.94,-7.226 5.378,-9.139 0.496,-2.162 0.257,-4.077 -0.718,-5.744 -0.974,-1.668 -3.32,-3.365 -7.038,-5.093 l 1.059,-4.615 58.499,13.414 -1.058,4.615 c -11.569,-1.078 -21.123,-0.446 -28.662,1.896 -7.539,2.341 -14.083,6.639 -19.631,12.895 -5.548,6.255 -9.199,13.207 -10.953,20.858 -1.983,8.65 -0.983,16.4 3.001,23.27 3.984,6.87 9.344,11.07 16.079,12.61 5.156,1.19 10.264,0.48 15.325,-2.13 7.419,-3.72 18.546,-14.08 33.383,-31.073 12.105,-13.855 21.086,-23.152 26.943,-27.892 5.857,-4.74 12.22,-7.964 19.088,-9.672 6.869,-1.707 13.671,-1.788 20.406,-0.244 12.806,2.936 22.706,10.436 29.699,22.499 6.993,12.063 8.698,25.912 5.113,41.542 -1.125,4.91 -2.557,9.44 -4.297,13.59 -1.007,2.48 -3.75,7.48 -8.228,14.98 -4.478,7.51 -6.965,12.35 -7.461,14.51 -0.477,2.08 -0.23,3.86 0.741,5.35 0.971,1.5 3.344,2.98 7.119,4.46 l -1.059,4.61 -58,-13.3 1.058,-4.61 c 12.636,0.62 22.388,-0.21 29.256,-2.48 6.868,-2.28 13.16,-6.72 18.877,-13.33 5.717,-6.61 9.605,-14.41 11.664,-23.39 2.384,-10.39 1.523,-19.23 -2.583,-26.522 -4.106,-7.287 -9.901,-11.788 -17.385,-13.504 -4.158,-0.954 -8.619,-0.773 -13.385,0.541 -4.765,1.315 -9.53,3.964 -14.295,7.948 -3.238,2.671 -10.57,10.307 -21.995,22.917 -11.425,12.61 -20.25,21.42 -26.474,26.43 -6.225,5 -12.61,8.42 -19.155,10.25 -6.546,1.82 -13.311,1.93 -20.296,0.33 -12.14,-2.78 -21.529,-9.84 -28.167,-21.16 -6.637,-11.33 -8.307,-24.18 -5.008,-38.569 z"
           fill-rule="evenodd"
           id="path3884"
           style="fill:#ffffff;stroke-width:9.37183" />
        <text
           fill="#000000"
           fill-opacity="0"
           font-family="Arial, Arial_MSFontService, sans-serif"
           font-size="140.092px"
           x="494.13699"
           y="1061.0601"
           id="text3886"
           style="fill:#ffffff;stroke-width:9.37183">S</text>
        <path
           d="m 526.445,888.545 53.432,-131.2 38.413,13.571 -1.835,4.504 c -6.991,-1.834 -12.214,-2.579 -15.67,-2.236 -5.58,0.583 -10.285,2.466 -14.115,5.65 -3.83,3.185 -7.097,8.095 -9.8,14.732 l -9.219,22.637 122.785,50.005 c 9.877,4.022 16.474,5.465 19.792,4.33 4.541,-1.651 8.083,-5.598 10.625,-11.84 l 2.269,-5.57 4.385,1.786 -27.754,68.148 -4.385,-1.786 2.317,-5.689 c 2.767,-6.795 2.676,-12.452 -0.274,-16.969 -1.821,-2.768 -7.235,-5.986 -16.242,-9.654 l -122.785,-50.005 -7.867,19.318 c -3.057,7.506 -4.676,13.065 -4.857,16.676 -0.172,4.72 1.28,9.41 4.356,14.071 3.076,4.661 8.136,8.749 15.18,12.262 l -1.834,4.504 z"
           fill-rule="evenodd"
           id="path3888"
           style="fill:#ffffff;stroke-width:9.37183" />
        <text
           fill="#000000"
           fill-opacity="0"
           font-family="Arial, Arial_MSFontService, sans-serif"
           font-size="165.716px"
           x="526.44501"
           y="902.34698"
           id="text3890"
           style="fill:#ffffff;stroke-width:9.37183">T</text>
        <path
           d="m 729.12,800.198 c 1.931,-3.514 4.769,-5.799 8.514,-6.856 3.745,-1.057 7.337,-0.64 10.776,1.25 3.439,1.89 5.706,4.718 6.8,8.483 1.095,3.765 0.697,7.368 -1.194,10.807 -1.89,3.439 -4.717,5.706 -8.483,6.8 -3.765,1.095 -7.367,0.697 -10.807,-1.193 -3.514,-1.932 -5.799,-4.77 -6.856,-8.515 -1.057,-3.744 -0.641,-7.336 1.25,-10.776 z"
           fill-rule="evenodd"
           id="path3892"
           style="fill:#ffffff;stroke-width:9.37183" />
        <text
           fill="#000000"
           fill-opacity="0"
           font-family="Arial, Arial_MSFontService, sans-serif"
           font-size="28.5109px"
           x="727.30103"
           y="817.71997"
           id="text3894"
           style="fill:#ffffff;stroke-width:9.37183">.</text>
        <path
           d="m 675.61,609.116 46.127,-58.312 3.713,2.938 -3.89,4.918 c -4.393,5.553 -5.956,10.898 -4.688,16.034 0.87,3.299 5.387,8.178 13.55,14.635 l 66.542,52.638 c 10.237,8.098 17.647,15.782 22.23,23.051 4.584,7.27 7.064,15.514 7.441,24.732 0.377,9.218 -2.504,17.708 -8.644,25.469 -4.975,6.29 -10.448,10.01 -16.417,11.162 -5.97,1.152 -10.962,0.14 -14.976,-3.035 -3.279,-2.594 -5.093,-5.389 -5.442,-8.385 -0.328,-3.848 0.673,-7.245 3.002,-10.189 1.693,-2.141 3.918,-3.509 6.672,-4.103 2.755,-0.595 8.209,0.211 16.362,2.418 4.83,1.319 8.198,0.775 10.104,-1.634 1.429,-1.807 1.661,-4.37 0.697,-7.689 -0.964,-3.319 -4.256,-7.201 -9.877,-11.647 l -92.937,-73.518 c -6.892,-5.452 -11.786,-8.616 -14.682,-9.493 -2.202,-0.654 -4.752,-0.387 -7.65,0.802 -3.882,1.607 -7.093,4.016 -9.633,7.228 l -3.891,4.917 z"
           fill-rule="evenodd"
           id="path3896"
           style="fill:#ffffff;stroke-width:9.37183" />
        <text
           fill="#000000"
           fill-opacity="0"
           font-family="Arial, Arial_MSFontService, sans-serif"
           font-size="176.037px"
           x="675.60999"
           y="704.83698"
           id="text3898"
           style="fill:#ffffff;stroke-width:9.37183">J</text>
        <path
           d="m 804.707,475.369 c -11.47,10.465 -16.791,23.114 -15.961,37.947 1.026,18.466 10.854,37.908 29.483,58.328 19.09,20.924 38.256,32.945 57.498,36.061 14.69,2.304 27.675,-1.69 38.957,-11.983 12.038,-10.982 17.696,-24.748 16.975,-41.298 -0.721,-16.549 -10.31,-34.939 -28.767,-55.17 -20.01,-21.932 -39.249,-34.349 -57.716,-37.248 -14.752,-2.247 -28.242,2.208 -40.469,13.363 z m -4.5,-8.54 c 16.639,-15.18 36.82,-22.015 60.544,-20.505 23.724,1.51 44.211,11.719 61.461,30.626 17.767,19.475 26.371,41.247 25.811,65.317 -0.56,24.069 -9.569,44.067 -27.026,59.995 -17.647,16.1 -38.195,23.356 -61.644,21.768 -23.448,-1.589 -44.258,-12.341 -62.427,-32.256 -18.573,-20.357 -26.791,-43.289 -24.656,-68.796 1.86,-22.138 11.173,-40.854 27.937,-56.149 z"
           fill-rule="evenodd"
           id="path3900"
           style="fill:#ffffff;stroke-width:9.37183" />
        <text
           fill="#000000"
           fill-opacity="0"
           font-family="Arial, Arial_MSFontService, sans-serif"
           font-size="178.124px"
           x="771.94"
           y="601.97803"
           id="text3902"
           style="fill:#ffffff;stroke-width:9.37183">O</text>
        <path
           d="m 894.333,390.857 64.204,-37.495 2.387,4.089 -5.414,3.162 c -3.536,2.065 -6.394,4.87 -8.572,8.414 -1.595,2.513 -2.136,5.224 -1.622,8.135 0.515,2.91 2.923,8.049 7.225,15.416 l 25.04,42.876 69.619,-40.657 -25.04,-42.876 c -4.48,-7.662 -7.9,-12.429 -10.28,-14.301 -1.81,-1.411 -4.28,-2.092 -7.41,-2.041 -4.21,0.082 -8.073,1.156 -11.61,3.221 l -5.304,3.097 -2.388,-4.088 64.092,-37.431 2.39,4.089 -5.31,3.098 c -3.53,2.065 -6.39,4.87 -8.57,8.414 -1.67,2.555 -2.22,5.278 -1.67,8.167 0.55,2.889 2.97,8.017 7.28,15.384 l 56.46,96.692 c 4.44,7.588 7.84,12.318 10.22,14.19 1.81,1.411 4.25,2.113 7.3,2.105 4.28,-0.125 8.18,-1.22 11.72,-3.285 l 5.3,-3.097 2.39,4.088 -64.09,37.431 -2.39,-4.089 5.3,-3.098 c 6.12,-3.571 9.52,-7.978 10.21,-13.223 0.47,-3.433 -1.92,-9.644 -7.17,-18.631 l -26.66,-45.639 -69.613,40.657 26.653,45.639 c 4.43,7.588 7.84,12.318 10.21,14.19 1.82,1.411 4.29,2.092 7.42,2.041 4.2,-0.082 8.07,-1.155 11.6,-3.221 l 5.42,-3.162 2.39,4.089 -64.207,37.495 -2.388,-4.089 5.305,-3.097 c 6.188,-3.614 9.628,-8.044 10.319,-13.288 0.391,-3.39 -2.037,-9.579 -7.286,-18.567 l -56.469,-96.692 c -4.474,-7.662 -7.9,-12.429 -10.278,-14.3 -1.812,-1.412 -4.247,-2.114 -7.306,-2.106 -4.274,0.125 -8.179,1.22 -11.715,3.285 l -5.304,3.098 z"
           fill-rule="evenodd"
           id="path3904"
           style="fill:#ffffff;stroke-width:9.37183" />
        <text
           fill="#000000"
           fill-opacity="0"
           font-family="Arial, Arial_MSFontService, sans-serif"
           font-size="240.324px"
           x="894.33301"
           y="510.66199"
           id="text3906"
           style="fill:#ffffff;stroke-width:9.37183">H</text>
        <path
           d="m 1071.86,289.179 44.76,-14.627 141.26,90.759 -31.08,-95.123 c -3.31,-10.136 -6.51,-16.091 -9.61,-17.863 -4.11,-2.425 -9.41,-2.578 -15.9,-0.458 l -5.71,1.868 -1.47,-4.501 57.41,-18.76 1.47,4.501 -5.84,1.907 c -6.97,2.279 -11.23,6.004 -12.77,11.175 -0.94,3.178 0.1,9.389 3.13,18.634 l 45.43,139.035 -4.38,1.431 -152.15,-97.299 33.18,101.57 c 3.32,10.137 6.48,16.105 9.49,17.903 4.19,2.399 9.49,2.552 15.9,0.459 l 5.84,-1.908 1.47,4.501 -57.41,18.76 -1.47,-4.501 5.71,-1.868 c 7.06,-2.305 11.36,-6.043 12.9,-11.214 0.93,-3.178 -0.11,-9.389 -3.13,-18.634 l -37.48,-114.707 c -6.61,-4.032 -11.45,-6.536 -14.5,-7.512 -3.06,-0.976 -7.23,-1.453 -12.52,-1.43 -2.59,0.038 -6.28,0.839 -11.06,2.403 z"
           fill-rule="evenodd"
           id="path3908"
           style="fill:#ffffff;stroke-width:9.37183" />
        <text
           fill="#000000"
           fill-opacity="0"
           font-family="Arial, Arial_MSFontService, sans-serif"
           font-size="220.669px"
           x="1071.86"
           y="423.55899"
           id="text3910"
           style="fill:#ffffff;stroke-width:9.37183">N</text>
        <path
           d="m 1347.04,212.875 47.07,-1.435 110.01,126.85 -3.06,-100.026 c -0.32,-10.659 -1.72,-17.274 -4.19,-19.845 -3.26,-3.485 -8.3,-5.123 -15.12,-4.915 l -6.02,0.183 -0.14,-4.733 60.37,-1.841 0.15,4.732 -6.14,0.188 c -7.34,0.223 -12.47,2.599 -15.4,7.127 -1.8,2.786 -2.55,9.04 -2.25,18.761 l 4.46,146.201 -4.6,0.141 -118.62,-136.19 3.26,106.805 c 0.33,10.659 1.68,17.275 4.06,19.848 3.35,3.483 8.4,5.122 15.13,4.916 l 6.14,-0.187 0.15,4.732 -60.38,1.842 -0.14,-4.733 6.01,-0.183 c 7.42,-0.226 12.6,-2.603 15.53,-7.131 1.79,-2.786 2.54,-9.04 2.25,-18.761 l -3.68,-120.619 c -5.21,-5.731 -9.15,-9.494 -11.81,-11.291 -2.66,-1.797 -6.52,-3.428 -11.61,-4.895 -2.49,-0.692 -6.26,-0.961 -11.29,-0.808 z"
           fill-rule="evenodd"
           id="path3912"
           style="fill:#ffffff;stroke-width:9.37183" />
        <text
           fill="#000000"
           fill-opacity="0"
           font-family="Arial, Arial_MSFontService, sans-serif"
           font-size="178.916px"
           x="1347.04"
           y="363.664"
           id="text3914"
           style="fill:#ffffff;stroke-width:9.37183">N</text>
        <path
           d="m 1566.37,210.65 131.95,21.779 -4.3,37.812 -4.92,-0.813 c -0.28,-9.298 -1.22,-15.808 -2.81,-19.529 -1.59,-3.722 -4.34,-6.813 -8.26,-9.276 -3.16,-1.818 -8.99,-3.429 -17.49,-4.832 l -46.97,-7.753 -11.17,67.676 37.62,6.211 c 9.77,1.611 16.53,1.215 20.3,-1.189 5.02,-3.15 8.59,-9.565 10.7,-19.246 l 4.67,0.771 -9.83,59.596 -4.67,-0.772 c 0.19,-8.527 -0.1,-14.067 -0.89,-16.618 -1.03,-3.196 -3.13,-5.921 -6.31,-8.174 -3.17,-2.253 -8.33,-3.97 -15.49,-5.151 l -37.62,-6.211 -9.32,56.439 c -1.25,7.575 -1.67,12.24 -1.27,13.992 0.4,1.753 1.36,3.252 2.89,4.498 1.52,1.246 4.64,2.258 9.35,3.036 l 29.04,4.793 c 9.68,1.598 16.82,2.085 21.42,1.46 4.6,-0.624 9.25,-2.581 13.94,-5.87 6.08,-4.357 12.73,-11.345 19.93,-20.964 l 5.06,0.833 -21.86,40.491 -131.95,-21.779 0.78,-4.671 6.06,1 c 4.04,0.667 8.03,0.331 11.96,-1.008 2.92,-0.902 5.08,-2.62 6.5,-5.154 1.41,-2.533 2.8,-7.967 4.18,-16.3 l 18.36,-111.236 c 1.79,-10.859 1.8,-17.731 0.03,-20.618 -2.47,-3.867 -7.25,-6.384 -14.32,-7.551 l -6.06,-1 z"
           fill-rule="evenodd"
           id="path3916"
           style="fill:#ffffff;stroke-width:9.37183" />
        <text
           fill="#000000"
           fill-opacity="0"
           font-family="Arial, Arial_MSFontService, sans-serif"
           font-size="192.989px"
           x="1538.11"
           y="379.51501"
           id="text3918"
           style="fill:#ffffff;stroke-width:9.37183">E</text>
        <path
           d="m 1741.43,240.508 70.18,26.437 -1.67,4.431 -6.23,-2.346 c -6.71,-2.526 -12.29,-2.215 -16.76,0.933 -3.08,2.122 -6.33,7.734 -9.76,16.835 l -26.67,70.775 c -2.37,6.307 -4.51,13.75 -6.43,22.329 -1.91,8.579 -2.2,15.716 -0.88,21.409 1.32,5.694 4.28,11.093 8.87,16.197 4.6,5.105 11.05,9.221 19.35,12.349 10.62,4 20.99,5.264 31.12,3.792 10.12,-1.473 18.08,-5.243 23.88,-11.31 5.8,-6.067 11.94,-17.723 18.44,-34.967 l 24.77,-65.745 c 3.82,-10.139 5.09,-16.907 3.82,-20.304 -1.79,-4.686 -5.76,-8.186 -11.91,-10.502 l -6.11,-2.301 1.67,-4.431 57.48,21.655 -1.67,4.431 -6.1,-2.301 c -6.39,-2.406 -12.31,-1.581 -17.75,2.474 -2.61,1.844 -5.62,7.276 -9.02,16.297 l -24.81,65.865 c -6.14,16.286 -12.51,28.311 -19.13,36.075 -6.62,7.763 -15.86,13.076 -27.75,15.939 -11.88,2.862 -25.96,1.226 -42.25,-4.91 -17.72,-6.677 -30.02,-14.818 -36.88,-24.424 -6.87,-9.607 -10.26,-20.321 -10.18,-32.143 0.12,-8.068 3.86,-21.882 11.23,-41.441 l 23.91,-63.47 c 3.76,-9.979 4.85,-17.044 3.27,-21.196 -1.58,-4.151 -5.44,-7.385 -11.59,-9.7 l -6.11,-2.301 z"
           fill-rule="evenodd"
           id="path3920"
           style="fill:#ffffff;stroke-width:9.37183" />
        <text
           fill="#000000"
           fill-opacity="0"
           font-family="Arial, Arial_MSFontService, sans-serif"
           font-size="205.382px"
           x="1719.05"
           y="420.21701"
           id="text3922"
           style="fill:#ffffff;stroke-width:9.37183">U</text>
        <path
           d="m 1945.19,318.96 40.63,27.631 -24.28,147.681 127.57,-77.451 40.63,27.631 -2.66,3.915 -4.97,-3.382 c -6.14,-4.173 -11.73,-5.289 -16.76,-3.348 -3.09,1.203 -7.37,5.825 -12.84,13.868 l -63.75,93.759 c -6,8.819 -8.75,14.993 -8.26,18.523 0.59,4.738 3.71,9.026 9.36,12.864 l 4.97,3.381 -2.66,3.916 -60.96,-41.447 2.67,-3.915 5.08,3.454 c 6.13,4.173 11.69,5.265 16.65,3.276 3.09,-1.203 7.36,-5.825 12.83,-13.868 l 65.19,-95.875 -137.44,83.111 -3.49,-2.375 26.65,-158.449 -65.2,95.876 c -5.99,8.818 -8.78,14.969 -8.36,18.451 0.59,4.738 3.71,9.026 9.35,12.863 l 5.08,3.454 -2.66,3.916 -49.95,-33.963 2.67,-3.916 5.08,3.454 c 6.06,4.125 11.61,5.217 16.65,3.276 3.08,-1.202 7.36,-5.825 12.83,-13.867 l 63.75,-93.76 c 4.32,-6.349 6.73,-11.414 7.24,-15.196 0.41,-2.717 -0.25,-5.663 -1.96,-8.838 -1.71,-3.175 -5.49,-6.753 -11.35,-10.734 z"
           fill-rule="evenodd"
           id="path3924"
           style="fill:#ffffff;stroke-width:9.37183" />
        <text
           fill="#000000"
           fill-opacity="0"
           font-family="Arial, Arial_MSFontService, sans-serif"
           font-size="268.988px"
           x="1847.61"
           y="554.32397"
           id="text3926"
           style="fill:#ffffff;stroke-width:9.37183">M</text>
        <path
           d="m 2184.17,554.841 -72.18,24.888 40.15,44.091 z m 32.62,-23.296 3.01,3.312 -66.05,141.85 c -5.31,11.408 -7.9,19.741 -7.79,25.001 0.12,5.259 2.4,10.65 6.86,16.173 l -3.5,3.188 -46.1,-50.62 3.5,-3.188 c 4.9,4.88 8.9,7.558 11.99,8.034 3.09,0.477 5.67,-0.233 7.75,-2.128 2.78,-2.528 6.01,-7.782 9.71,-15.762 l 11.38,-24.56 -45.23,-49.673 -28.18,9.734 c -6.93,2.393 -11.63,4.71 -14.09,6.95 -1.96,1.781 -2.83,4.277 -2.62,7.487 0.22,3.211 2.92,8.108 8.1,14.692 l -3.5,3.188 -36.79,-40.401 3.5,-3.188 c 5.83,4.5 10.22,6.849 13.17,7.047 5.96,0.46 15.35,-1.577 28.19,-6.11 z"
           fill-rule="evenodd"
           id="path3928"
           style="fill:#ffffff;stroke-width:9.37183" />
        <text
           fill="#000000"
           fill-opacity="0"
           font-family="Arial, Arial_MSFontService, sans-serif"
           font-size="189.524px"
           x="2025.24"
           y="697.37799"
           id="text3930"
           style="fill:#ffffff;stroke-width:9.37183">A</text>
        <path
           d="m 2291.53,622.016 23.71,40.688 -59.03,157.186 86.46,-50.386 c 9.21,-5.369 14.36,-9.752 15.44,-13.147 1.51,-4.532 0.55,-9.746 -2.89,-15.642 l -3.03,-5.197 4.09,-2.384 30.41,52.187 -4.09,2.384 -3.09,-5.307 c -3.69,-6.339 -8.23,-9.719 -13.61,-10.139 -3.3,-0.247 -9.16,2.078 -17.56,6.975 l -126.38,73.646 -2.32,-3.98 63.14,-169.206 -92.32,53.801 c -9.22,5.37 -14.39,9.715 -15.51,13.037 -1.46,4.605 -0.5,9.819 2.89,15.642 l 3.1,5.307 -4.09,2.384 -30.42,-52.186 4.09,-2.384 3.03,5.196 c 3.74,6.413 8.3,9.829 13.68,10.249 3.3,0.247 9.15,-2.078 17.56,-6.974 l 104.26,-60.76 c 2.55,-7.313 3.98,-12.566 4.3,-15.759 0.31,-3.193 -0.1,-7.372 -1.24,-12.538 -0.58,-2.524 -2.14,-5.96 -4.67,-10.309 z"
           fill-rule="evenodd"
           id="path3932"
           style="fill:#ffffff;stroke-width:9.37183" />
        <text
           fill="#000000"
           fill-opacity="0"
           font-family="Arial, Arial_MSFontService, sans-serif"
           font-size="230.864px"
           x="2146.4299"
           y="824.02197"
           id="text3934"
           style="fill:#ffffff;stroke-width:9.37183">N</text>
        <path
           d="m 2397.05,806.523 14.58,44.778 -90.89,141.173 95.15,-30.989 c 10.14,-3.302 16.1,-6.498 17.87,-9.589 2.43,-4.111 2.59,-9.411 0.48,-15.901 l -1.87,-5.718 4.51,-1.467 18.7,57.433 -4.5,1.466 -1.91,-5.84 c -2.27,-6.977 -5.99,-11.238 -11.16,-12.785 -3.17,-0.939 -9.39,0.097 -18.63,3.109 l -139.08,45.297 -1.43,-4.38 97.45,-152.058 -101.61,33.089 c -10.14,3.302 -16.11,6.458 -17.91,9.467 -2.4,4.193 -2.56,9.493 -0.47,15.901 l 1.9,5.841 -4.5,1.466 -18.71,-57.433 4.51,-1.466 1.86,5.719 c 2.3,7.057 6.03,11.359 11.2,12.906 3.18,0.939 9.39,-0.097 18.64,-3.109 l 114.74,-37.368 c 4.04,-6.609 6.55,-11.441 7.53,-14.497 0.98,-3.055 1.46,-7.227 1.44,-12.515 -0.04,-2.59 -0.83,-6.278 -2.39,-11.064 z"
           fill-rule="evenodd"
           id="path3936"
           style="fill:#ffffff;stroke-width:9.37183" />
        <text
           fill="#000000"
           fill-opacity="0"
           font-family="Arial, Arial_MSFontService, sans-serif"
           font-size="210.965px"
           x="2235.02"
           y="991.117"
           id="text3938"
           style="fill:#ffffff;stroke-width:9.37183">N</text>
        <path
           d="m 645.906,1414.86 c -1.135,-4.83 -3.462,-11.17 -6.979,-19.03 l -70.338,16.56 c 0.372,1.58 0.674,2.96 0.906,4.13 0.233,1.18 0.437,2.14 0.613,2.89 3.798,16.13 10.152,27.46 19.064,34.01 8.912,6.54 18.773,8.55 29.581,6 10.559,-2.49 18.366,-7.81 23.419,-15.98 5.054,-8.16 6.299,-17.69 3.734,-28.58 z m -6.465,-69.95 14.505,61.6 c 4.228,17.96 6.036,31.51 5.423,40.65 -0.613,9.14 -3.732,17.51 -9.358,25.11 -5.626,7.59 -13.303,12.54 -23.03,14.83 -10.393,2.45 -20.212,1.18 -29.456,-3.79 -9.244,-4.98 -17.12,-14.2 -23.627,-27.68 l -40.292,46.34 c -9.262,10.61 -15.046,19.21 -17.354,25.81 -2.308,6.6 -2.874,14.63 -1.699,24.09 l -4.614,1.09 -10.629,-45.15 65.591,-75.86 c -1.165,-4.2 -2.06,-7.63 -2.686,-10.29 -0.255,-1.08 -0.508,-2.25 -0.76,-3.51 -0.252,-1.25 -0.493,-2.56 -0.723,-3.91 l -49.137,11.57 c -10.643,2.51 -16.978,5.23 -19.008,8.16 -2.914,4.02 -3.627,9.19 -2.14,15.51 l 1.556,6.61 -4.614,1.09 -17.059,-72.46 4.614,-1.09 1.498,6.36 c 1.683,7.15 5.215,11.72 10.595,13.7 2.989,1.14 9.305,0.57 18.95,-1.7 l 109.248,-25.72 c 10.643,-2.5 16.978,-5.22 19.008,-8.16 2.895,-4.1 3.588,-9.36 2.081,-15.76 l -1.497,-6.36 z"
           fill-rule="evenodd"
           id="path3940"
           style="fill:#ffffff;stroke-width:9.37183" />
        <text
           fill="#000000"
           fill-opacity="0"
           font-family="Arial, Arial_MSFontService, sans-serif"
           font-size="208.053px"
           x="470.32999"
           y="1526.95"
           id="text3942"
           style="fill:#ffffff;stroke-width:9.37183">R</text>
        <path
           d="m 674.391,1494.83 53.411,122.78 -34.127,16.94 -1.994,-4.58 c 7.665,-5.29 12.63,-9.62 14.894,-12.98 2.264,-3.36 3.367,-7.35 3.308,-11.99 -0.188,-3.64 -2.003,-9.42 -5.444,-17.33 l -19.013,-43.7 -62.973,27.39 15.231,35.01 c 3.952,9.09 7.963,14.56 12.034,16.43 5.375,2.5 12.707,2.01 21.997,-1.47 l 1.891,4.35 -55.454,24.12 -1.891,-4.35 c 7.277,-4.47 11.774,-7.73 13.49,-9.78 2.128,-2.6 3.277,-5.85 3.446,-9.74 0.17,-3.89 -1.194,-9.17 -4.09,-15.83 l -15.231,-35.01 -52.517,22.85 c -7.049,3.07 -11.201,5.25 -12.456,6.54 -1.254,1.29 -1.991,2.91 -2.211,4.87 -0.219,1.96 0.626,5.13 2.534,9.52 l 11.755,27.02 c 3.919,9.01 7.39,15.27 10.415,18.8 3.025,3.53 7.196,6.37 12.513,8.53 6.969,2.74 16.456,4.53 28.461,5.36 l 2.045,4.7 -45.926,3.63 -53.411,-122.77 4.348,-1.89 2.453,5.64 c 1.635,3.76 4.086,6.93 7.353,9.51 2.344,1.97 4.965,2.85 7.863,2.66 2.898,-0.19 8.224,-1.97 15.978,-5.34 l 103.507,-45.03 c 10.103,-4.4 15.887,-8.12 17.351,-11.18 1.906,-4.18 1.428,-9.57 -1.434,-16.14 l -2.453,-5.64 z"
           fill-rule="evenodd"
           id="path3944"
           style="fill:#ffffff;stroke-width:9.37183" />
        <text
           fill="#000000"
           fill-opacity="0"
           font-family="Arial, Arial_MSFontService, sans-serif"
           font-size="192.08px"
           x="515.078"
           y="1662.9"
           id="text3946"
           style="fill:#ffffff;stroke-width:9.37183">E</text>
        <path
           d="m 784.155,1699.1 c 3.549,5.23 6.35,10.27 8.403,15.12 2.054,4.85 4.293,12.19 6.718,22 1.201,4.96 2.258,8.12 3.169,9.46 0.911,1.34 2.309,2.07 4.193,2.19 1.884,0.11 4.701,-0.95 8.45,-3.18 l 2.661,3.92 -42.86,34.5 -2.517,-3.71 c 8.767,-11.42 13.999,-22.04 15.696,-31.86 2.467,-14.17 -0.856,-27.96 -9.968,-41.39 -12.42,-18.31 -29.113,-27.32 -50.077,-27.03 -17.647,0.31 -34.917,6.2 -51.81,17.66 -13.712,9.3 -24.424,20.44 -32.137,33.42 -7.712,12.97 -11.287,25.54 -10.727,37.7 0.562,12.16 3.911,22.76 10.05,31.81 3.597,5.3 7.745,9.97 12.445,14.01 4.7,4.03 9.916,7.46 15.648,10.28 l 41.561,-28.2 c 7.21,-4.89 11.556,-8.64 13.039,-11.24 1.483,-2.61 2.029,-5.46 1.636,-8.55 -0.392,-3.08 -2.554,-7.53 -6.487,-13.32 l 4.029,-2.74 37.766,55.67 -4.029,2.73 -1.798,-2.65 c -3.741,-5.51 -8.144,-8.05 -13.21,-7.6 -3.575,0.36 -9.214,3.15 -16.918,8.38 l -44,29.85 c -9.897,-5.15 -18.556,-10.99 -25.977,-17.52 -7.421,-6.53 -14.417,-14.63 -20.987,-24.31 -18.847,-27.78 -24.256,-54.92 -16.228,-81.43 6.022,-19.88 17.762,-35.74 35.22,-47.58 12.652,-8.59 26.836,-13.77 42.552,-15.56 18.675,-2.14 35.991,0.56 51.949,8.11 13.295,6.36 24.81,16.71 34.545,31.06 z"
           fill-rule="evenodd"
           id="path3948"
           style="fill:#ffffff;stroke-width:9.37183" />
        <text
           fill="#000000"
           fill-opacity="0"
           font-family="Arial, Arial_MSFontService, sans-serif"
           font-size="187.109px"
           x="616.29199"
           y="1822.9399"
           id="text3950"
           style="fill:#ffffff;stroke-width:9.37183">G</text>
        <path
           d="m 826.583,1762.72 50.32,54.85 -3.494,3.21 -4.244,-4.63 c -4.792,-5.22 -9.827,-7.62 -15.106,-7.18 -3.457,0.27 -9.026,3.93 -16.705,10.98 l -82.709,75.87 c -6.483,5.94 -10.388,10.28 -11.714,13 -0.997,2.08 -1.137,4.64 -0.423,7.69 0.972,4.1 2.844,7.65 5.616,10.67 l 4.244,4.63 -3.494,3.2 -50.32,-54.85 3.494,-3.21 4.157,4.54 c 4.85,5.28 9.914,7.71 15.193,7.27 3.4,-0.34 8.939,-4.03 16.618,-11.07 l 82.709,-75.87 c 6.483,-5.95 10.388,-10.28 11.715,-13.01 0.996,-2.07 1.166,-4.6 0.509,-7.59 -1.03,-4.16 -2.931,-7.74 -5.702,-10.77 l -4.157,-4.53 z"
           fill-rule="evenodd"
           id="path3952"
           style="fill:#ffffff;stroke-width:9.37183" />
        <text
           fill="#000000"
           fill-opacity="0"
           font-family="Arial, Arial_MSFontService, sans-serif"
           font-size="172.297px"
           x="698.55402"
           y="1913.48"
           id="text3954"
           style="fill:#ffffff;stroke-width:9.37183">I</text>
        <path
           d="m 934.733,1875.81 c -12.062,-9.81 -25.376,-13.2 -39.94,-10.18 -18.132,3.75 -35.926,16.37 -53.383,37.84 -17.888,22.01 -26.948,42.77 -27.181,62.28 -0.104,14.89 5.777,27.15 17.641,36.8 12.659,10.29 27.128,13.85 43.408,10.68 16.279,-3.17 33.067,-15.39 50.362,-36.66 18.75,-23.07 28.192,-43.96 28.325,-62.67 0.037,-14.94 -6.374,-27.64 -19.232,-38.09 z m 7.789,-5.72 c 17.497,14.22 27.257,33.19 29.279,56.9 2.022,23.72 -5.048,45.52 -21.212,65.4 -16.649,20.48 -36.931,32.23 -60.847,35.24 -23.915,3.02 -45.053,-2.94 -63.412,-17.86 -18.558,-15.09 -28.789,-34.36 -30.693,-57.81 -1.904,-23.46 5.657,-45.65 22.683,-66.6 17.403,-21.41 38.891,-32.94 64.463,-34.61 22.196,-1.44 42.109,5 59.739,19.34 z"
           fill-rule="evenodd"
           id="path3956"
           style="fill:#ffffff;stroke-width:9.37183" />
        <text
           fill="#000000"
           fill-opacity="0"
           font-family="Arial, Arial_MSFontService, sans-serif"
           font-size="177.841px"
           x="795.34998"
           y="2006.16"
           id="text3958"
           style="fill:#ffffff;stroke-width:9.37183">O</text>
        <path
           d="m 989.106,1917.15 41.784,21.85 33.73,164.68 46.43,-88.78 c 4.95,-9.46 6.98,-15.92 6.09,-19.38 -1.14,-4.64 -4.74,-8.55 -10.79,-11.71 l -5.34,-2.79 2.2,-4.2 53.59,28.02 -2.2,4.2 -5.45,-2.85 c -6.51,-3.4 -12.15,-3.85 -16.94,-1.34 -2.93,1.55 -6.65,6.64 -11.16,15.27 l -67.87,129.77 -4.09,-2.13 -36.66,-177.07 -49.578,94.81 c -4.948,9.46 -7.013,15.9 -6.197,19.31 1.214,4.68 4.81,8.59 10.79,11.72 l 5.45,2.85 -2.197,4.2 -53.589,-28.03 2.197,-4.2 5.336,2.79 c 6.585,3.45 12.269,3.91 17.053,1.4 2.931,-1.55 6.654,-6.64 11.166,-15.27 l 55.989,-107.06 c -1.73,-7.56 -3.32,-12.78 -4.76,-15.65 -1.43,-2.87 -4.01,-6.19 -7.724,-9.97 -1.839,-1.83 -4.991,-3.91 -9.457,-6.24 z"
           fill-rule="evenodd"
           id="path3960"
           style="fill:#ffffff;stroke-width:9.37183" />
        <text
           fill="#000000"
           fill-opacity="0"
           font-family="Arial, Arial_MSFontService, sans-serif"
           font-size="232.748px"
           x="917.10901"
           y="2120.8"
           id="text3962"
           style="fill:#ffffff;stroke-width:9.37183">N</text>
        <path
           d="m 1210.92,2055.91 -48.44,59.14 57.39,16.48 z m 15.56,-36.99 4.31,1.24 18.24,155.6 c 1.47,12.51 3.64,20.97 6.5,25.39 2.86,4.42 7.64,7.82 14.34,10.18 l -1.31,4.56 -65.88,-18.92 1.31,-4.55 c 6.74,1.58 11.55,1.76 14.44,0.54 2.88,-1.21 4.71,-3.18 5.49,-5.89 1.03,-3.61 1.03,-9.78 -0.02,-18.53 l -3.2,-26.91 -64.65,-18.56 -18.9,23.1 c -4.65,5.68 -7.44,10.12 -8.36,13.32 -0.73,2.55 -0.16,5.13 1.71,7.76 1.87,2.62 6.74,5.38 14.62,8.26 l -1.31,4.56 -52.58,-15.1 1.31,-4.56 c 7.33,0.78 12.3,0.47 14.92,-0.91 5.32,-2.74 12.26,-9.41 20.81,-20.02 z"
           fill-rule="evenodd"
           id="path3964"
           style="fill:#ffffff;stroke-width:9.37183" />
        <text
           fill="#000000"
           fill-opacity="0"
           font-family="Arial, Arial_MSFontService, sans-serif"
           font-size="196.972px"
           x="1091.23"
           y="2191.27"
           id="text3966"
           style="fill:#ffffff;stroke-width:9.37183">A</text>
        <path
           d="m 1303.15,2044.31 78.29,7.74 -0.47,4.72 c -9.17,-0.99 -15.69,-0.78 -19.57,0.64 -3.87,1.42 -6.62,3.42 -8.25,6.01 -1.63,2.58 -2.96,9.02 -3.97,19.3 l -10.75,108.63 c -0.7,7.06 -0.5,11.97 0.6,14.74 0.84,1.89 2.29,3.36 4.33,4.42 2.04,1.06 8.63,2.14 19.76,3.24 l 12.62,1.25 c 13.26,1.31 22.67,1.26 28.22,-0.17 5.54,-1.42 10.77,-4.4 15.69,-8.94 4.91,-4.54 10.1,-11.94 15.58,-22.21 l 4.12,1.31 -19.43,45.45 -133.87,-13.24 0.46,-4.72 6.51,0.64 c 7.31,0.73 12.77,-1.14 16.38,-5.58 2.06,-2.55 3.57,-8.75 4.55,-18.61 l 11.04,-111.56 c 1.07,-10.8 0.54,-17.67 -1.57,-20.63 -2.94,-4.07 -7.69,-6.42 -14.23,-7.07 l -6.5,-0.65 z"
           fill-rule="evenodd"
           id="path3968"
           style="fill:#ffffff;stroke-width:9.37183" />
        <text
           fill="#000000"
           fill-opacity="0"
           font-family="Arial, Arial_MSFontService, sans-serif"
           font-size="186.137px"
           x="1286.05"
           y="2207.1799"
           id="text3970"
           style="fill:#ffffff;stroke-width:9.37183">L</text>
        <path
           d="m 1562,2084.42 -20.58,73.62 59.17,-7.97 z m -0.62,-40.12 4.44,-0.6 79.24,135.15 c 6.38,10.86 11.77,17.74 16.17,20.64 4.39,2.9 10.13,4.08 17.22,3.56 l 0.63,4.7 -67.93,9.15 -0.63,-4.69 c 6.81,-1.27 11.29,-3.03 13.44,-5.31 2.15,-2.27 3.03,-4.8 2.66,-7.6 -0.5,-3.72 -2.99,-9.37 -7.46,-16.96 l -13.75,-23.36 -66.66,8.99 -8.02,28.75 c -1.98,7.07 -2.74,12.26 -2.3,15.56 0.36,2.63 1.92,4.76 4.68,6.42 2.77,1.65 8.34,2.21 16.71,1.69 l 0.64,4.7 -54.22,7.3 -0.64,-4.69 c 7.03,-2.24 11.46,-4.52 13.3,-6.84 3.77,-4.64 7.44,-13.54 11.01,-26.69 z"
           fill-rule="evenodd"
           id="path3972"
           style="fill:#ffffff;stroke-width:9.37183" />
        <text
           fill="#000000"
           fill-opacity="0"
           font-family="Arial, Arial_MSFontService, sans-serif"
           font-size="188.694px"
           x="1495.6"
           y="2208.8101"
           id="text3974"
           style="fill:#ffffff;stroke-width:9.37183">A</text>
        <path
           d="m 1726.9,2004.62 c 11.88,-4.05 24.6,-5.14 38.14,-3.25 4.01,0.62 6.73,0.68 8.19,0.18 2.18,-0.74 3.82,-2.16 4.91,-4.24 1.36,-2.9 1.82,-6.44 1.39,-10.63 l 4.25,-1.44 22.81,54.62 -3.76,1.28 c -10.72,-15.02 -21.98,-24.63 -33.78,-28.82 -11.81,-4.19 -24.22,-4.07 -37.24,0.37 -10.91,3.72 -19.83,9.85 -26.76,18.39 -6.92,8.54 -10.84,19.74 -11.76,33.59 -0.92,13.85 1.69,29.79 7.83,47.82 5.07,14.87 11.85,26.95 20.34,36.24 8.49,9.29 18.52,15.22 30.08,17.77 11.57,2.56 23.49,1.74 35.78,-2.45 10.67,-3.63 19.31,-9.13 25.92,-16.48 6.61,-7.35 12.49,-19.48 17.65,-36.4 l 4.58,1.15 c -3.26,17.44 -9.23,31.43 -17.91,41.97 -8.68,10.54 -20.58,18.38 -35.7,23.54 -27.24,9.28 -51.79,6.37 -73.64,-8.75 -16.28,-11.24 -27.89,-27.04 -34.83,-47.41 -5.6,-16.42 -7.05,-32.75 -4.38,-49 2.67,-16.25 9.17,-30.36 19.49,-42.31 10.32,-11.95 23.12,-20.53 38.4,-25.74 z"
           fill-rule="evenodd"
           id="path3976"
           style="fill:#ffffff;stroke-width:9.37183" />
        <text
           fill="#000000"
           fill-opacity="0"
           font-family="Arial, Arial_MSFontService, sans-serif"
           font-size="197.89px"
           x="1667.71"
           y="2158.3899"
           id="text3978"
           style="fill:#ffffff;stroke-width:9.37183">C</text>
        <path
           d="m 1873.2,1981.54 8.85,75.94 51.73,-29.81 z m -15.79,-36.89 3.89,-2.24 124.55,95.04 c 10.01,7.63 17.61,11.96 22.78,12.97 5.16,1.02 10.93,-0.06 17.28,-3.23 l 2.37,4.11 -59.39,34.22 -2.37,-4.11 c 5.82,-3.75 9.3,-7.08 10.43,-10 1.13,-2.92 0.99,-5.6 -0.42,-8.04 -1.88,-3.26 -6.32,-7.55 -13.33,-12.87 l -21.58,-16.41 -58.28,33.58 3.48,29.65 c 0.85,7.29 2.11,12.38 3.77,15.27 1.32,2.29 3.57,3.68 6.76,4.16 3.18,0.48 8.55,-1.1 16.1,-4.77 l 2.37,4.11 -47.4,27.31 -2.37,-4.1 c 5.65,-4.74 8.89,-8.53 9.72,-11.37 1.73,-5.73 1.75,-15.35 0.07,-28.87 z"
           fill-rule="evenodd"
           id="path3980"
           style="fill:#ffffff;stroke-width:9.37183" />
        <text
           fill="#000000"
           fill-opacity="0"
           font-family="Arial, Arial_MSFontService, sans-serif"
           font-size="200.99px"
           x="1857.41"
           y="2118.28"
           id="text3982"
           style="fill:#ffffff;stroke-width:9.37183">A</text>
        <path
           d="m 1990.92,1867.66 c -5.76,5.09 -11.51,11.81 -17.23,20.17 l 97.75,110.76 c 9.72,-5.39 17.33,-10.51 22.83,-15.37 14.86,-13.12 22.58,-29.22 23.17,-48.3 0.59,-19.09 -7.01,-37.56 -22.78,-55.43 -15.88,-18 -33.3,-27.86 -52.25,-29.59 -18.96,-1.72 -36.12,4.2 -51.49,17.76 z m -63.31,42.89 53.03,-46.8 c 19.47,-17.18 36.22,-28.04 50.28,-32.58 14.05,-4.54 28.71,-4.38 43.99,0.47 15.28,4.86 28.88,14.04 40.81,27.56 15.99,18.12 23.85,38.13 23.58,60.02 -0.38,24.48 -13.22,47.89 -38.51,70.21 l -58.22,51.38 -3.13,-3.56 4.89,-4.32 c 5.51,-4.86 7.86,-10.07 7.06,-15.63 -0.45,-3.35 -3.93,-8.71 -10.43,-16.08 l -74.27,-84.15 c -7.18,-8.13 -12.57,-12.43 -16.17,-12.9 -4.98,-0.61 -9.94,1.26 -14.87,5.61 l -4.9,4.32 z"
           fill-rule="evenodd"
           id="path3984"
           style="fill:#ffffff;stroke-width:9.37183" />
        <text
           fill="#000000"
           fill-opacity="0"
           font-family="Arial, Arial_MSFontService, sans-serif"
           font-size="212.931px"
           x="1927.61"
           y="2014.1899"
           id="text3986"
           style="fill:#ffffff;stroke-width:9.37183">D</text>
        <path
           d="m 2053.19,1799.39 82.44,-105.5 31.16,21.92 -3.07,3.93 c -8.31,-4.21 -14.48,-6.51 -18.51,-6.9 -4.04,-0.39 -8.07,0.55 -12.12,2.81 -3.11,1.9 -7.32,6.25 -12.63,13.05 l -29.35,37.56 54.11,42.28 23.51,-30.08 c 6.1,-7.81 9,-13.95 8.69,-18.41 -0.36,-5.92 -4.28,-12.13 -11.78,-18.64 l 2.92,-3.73 47.65,37.23 -2.91,3.74 c -7.4,-4.27 -12.41,-6.66 -15.03,-7.19 -3.31,-0.63 -6.71,-0.09 -10.21,1.61 -3.5,1.71 -7.49,5.43 -11.96,11.15 l -23.51,30.08 45.13,35.27 c 6.05,4.73 9.95,7.34 11.68,7.83 1.74,0.48 3.52,0.36 5.34,-0.39 1.83,-0.74 4.21,-2.99 7.16,-6.76 l 18.14,-23.22 c 6.05,-7.74 9.9,-13.78 11.56,-18.12 1.66,-4.34 2.17,-9.37 1.53,-15.07 -0.91,-7.43 -3.86,-16.62 -8.86,-27.57 l 3.16,-4.04 25.09,38.63 -82.44,105.5 -3.73,-2.92 3.78,-4.84 c 2.53,-3.23 4.15,-6.9 4.86,-11 0.61,-3 0.13,-5.72 -1.41,-8.18 -1.55,-2.46 -5.66,-6.29 -12.32,-11.5 l -88.94,-69.5 c -8.69,-6.78 -14.72,-10.09 -18.11,-9.92 -4.58,0.32 -9.08,3.31 -13.5,8.96 l -3.79,4.85 z"
           fill-rule="evenodd"
           id="path3988"
           style="fill:#ffffff;stroke-width:9.37183" />
        <text
           fill="#000000"
           fill-opacity="0"
           font-family="Arial, Arial_MSFontService, sans-serif"
           font-size="212.472px"
           x="2053.1899"
           y="1879.8"
           id="text3990"
           style="fill:#ffffff;stroke-width:9.37183">E</text>
        <path
           d="m 2140.27,1696.96 21.61,-44.2 149.81,3.06 -94.9,-115.41 21.61,-44.2 4.26,2.08 -2.65,5.41 c -3.26,6.68 -3.57,12.37 -0.93,17.09 1.63,2.89 6.82,6.47 15.56,10.74 l 101.99,49.86 c 9.59,4.68 16.1,6.54 19.53,5.55 4.61,-1.26 8.42,-4.97 11.42,-11.1 l 2.64,-5.41 4.26,2.08 -32.41,66.3 -4.26,-2.08 2.7,-5.53 c 3.27,-6.67 3.56,-12.33 0.88,-16.97 -1.63,-2.89 -6.82,-6.47 -15.56,-10.74 l -104.29,-50.98 101.91,124.4 -1.86,3.8 -160.82,-3.88 104.29,50.97 c 9.59,4.69 16.08,6.58 19.47,5.67 4.62,-1.26 8.42,-4.96 11.42,-11.1 l 2.7,-5.53 4.26,2.08 -26.56,54.33 -4.25,-2.08 2.7,-5.52 c 3.22,-6.6 3.52,-12.26 0.88,-16.97 -1.64,-2.89 -6.82,-6.47 -15.57,-10.75 l -101.99,-49.85 c -6.9,-3.38 -12.27,-5.05 -16.09,-5.01 -2.75,-0.02 -5.57,1.05 -8.48,3.2 -2.9,2.14 -5.91,6.4 -9.02,12.77 z"
           fill-rule="evenodd"
           id="path3992"
           style="fill:#ffffff;stroke-width:9.37183" />
        <text
           fill="#000000"
           fill-opacity="0"
           font-family="Arial, Arial_MSFontService, sans-serif"
           font-size="277.043px"
           x="2140.27"
           y="1738.62"
           id="text3994"
           style="fill:#ffffff;stroke-width:9.37183">M</text>
        <path
           d="m 2229.6,1513.05 17.24,-72.29 4.61,1.1 -0.89,3.74 c -0.94,3.91 -0.88,7.72 0.17,11.43 1.04,3.72 3.39,6.02 7.05,6.89 2.99,0.71 8.99,-0.53 18.01,-3.74 l 62.88,-22.28 -44.19,-45.58 c -6.62,-6.84 -11.85,-10.72 -15.67,-11.63 -2.32,-0.56 -4.54,-0.45 -6.66,0.32 -2.11,0.77 -3.96,2.15 -5.53,4.14 -1.58,2 -2.9,5.24 -3.97,9.73 l -4.61,-1.1 14.06,-58.95 4.61,1.1 -0.77,3.24 c -0.52,2.16 -0.32,5.54 0.61,10.15 0.92,4.61 2.76,9.05 5.52,13.31 2.76,4.25 7.57,9.84 14.44,16.74 l 54.47,56.06 42.37,10.11 c 10.39,2.48 17.14,2.86 20.27,1.15 4.25,-2.33 7.18,-6.9 8.81,-13.71 l 1.3,-5.48 4.61,1.1 -17.12,71.78 -4.61,-1.1 1.43,-5.98 c 1.7,-7.15 0.75,-12.73 -2.85,-16.75 -2.23,-2.46 -8.08,-4.82 -17.55,-7.08 l -40,-9.54 -81.85,29.48 c -9.61,3.5 -15.69,5.98 -18.24,7.44 -2.54,1.45 -6,4.91 -10.37,10.36 -1.23,1.47 -2.22,3.78 -2.97,6.94 z"
           fill-rule="evenodd"
           id="path3996"
           style="fill:#ffffff;stroke-width:9.37183" />
        <text
           fill="#000000"
           fill-opacity="0"
           font-family="Arial, Arial_MSFontService, sans-serif"
           font-size="179.318px"
           x="2229.6001"
           y="1491.73"
           id="text3998"
           style="fill:#ffffff;stroke-width:9.37183">Y</text>
      </g>
    </g>
    <path
       id="path4276"
       style="fill:#ffffff;stroke:none;stroke-width:1px;stroke-linecap:butt;stroke-linejoin:miter;stroke-opacity:1"
       d="m 216.76578,256.4375 c 0,0 -1.23725,0.94267 -1.11942,4.80172 0.11784,3.85904 0,33.0523 0,33.0523 h -3.56446 v 2.82801 h 4.06526 v 0.2596 c 0,0 -0.79697,0.79168 -1.00528,1.48949 -0.20831,0.69781 -0.30194,1.63493 -0.30194,1.63493 l -3.13548,3.75964 -1.63494,-1.86509 c 0,0 -0.29242,-1.9888 -1.16729,-3.96767 -0.87487,-1.97888 -2.01973,-3.08209 -2.01973,-3.08209 v -3.75042 h 1.41584 c 0,0 1.95361,0.0441 1.53184,-1.53 -0.42178,-1.57408 -0.7384,-2.81431 -0.0736,-3.19807 0.6647,-0.38377 0.7291,-0.33387 0.7291,-1.04209 0,-0.70823 -0.49158,-1.83562 -0.49158,-1.83562 0,0 -0.32957,-0.57077 -0.32957,-1.23173 0,-0.66097 0.51453,-1.14704 1.14703,-1.14704 0.6325,0 1.25747,-0.0769 1.59075,-0.55602 0.33328,-0.4791 -0.39592,-1.43593 -0.79169,-2.04 -0.39578,-0.60409 -2.91638,-2.93847 -2.91638,-2.93847 0,0 -0.58335,-0.91563 -1.12494,-0.8948 -0.54158,0.0208 -0.41559,0.16578 -0.8322,0.56155 -0.4166,0.39578 -5.16626,-0.12336 -5.16626,-0.12336 0,0 1.10393,-2.08343 -0.39585,-3.77067 -1.49977,-1.68726 -3.47793,-1.58339 -3.47793,-1.58339 0,0 -2.83393,-2.12439 -4.47952,-1.60364 -1.64558,0.52075 -1.22804,1.29064 -1.22804,1.29064 0,0 -3.18751,-0.60378 -4.16653,0.52105 -0.97901,1.12483 -0.37558,1.85404 -0.37558,1.85404 0,0 -1.83322,2.12453 -1.85404,3.45767 -0.0208,1.33313 0.70867,1.91653 1.31274,1.85404 0.60408,-0.0625 -0.33325,1.0826 -0.33325,1.0826 0,0 -0.37481,0.43762 -0.27065,1.52079 0.10414,1.08317 0.93714,2.04183 0.93714,2.04183 0,0 -0.54061,1.27123 0.5634,2.10444 1.10399,0.83321 2.14493,0.47869 2.14493,0.47869 0,0 1.00048,1.49953 2.83353,1.2704 1.83307,-0.22914 4.72808,-3.70808 4.72808,-3.70808 l 0.31299,9.18549 c 0,0 0.33349,1.37614 -1.99949,1.48028 -2.33299,0.10415 -3.06377,1.64521 -3.12627,3.66574 -0.0625,2.02053 -0.66649,12.60266 -0.66649,12.60266 0,0 -0.66564,0.20862 -1.22805,1.25014 -0.56242,1.04151 -0.313,1.76934 -0.313,1.76934 0,0 -1.83324,1.43708 -0.45845,3.06183 1.3748,1.62476 2.91638,1.3956 2.91638,1.3956 l -0.60389,4.39666 -7.33146,-0.0221 c 0,0 -2.52057,-1.56198 -4.31197,-1.60364 -1.7914,-0.0417 -7.95744,3.77067 -7.95744,3.77067 0,0 -2.51982,1.72949 -4.93612,2.10443 -2.41632,0.37494 -3.85353,0.39401 -3.85353,0.39401 0,0 -1.70866,0.0637 -2.10443,-0.37375 -0.39578,-0.43743 -2.06208,-0.29274 -2.06208,-0.29274 0,0 -1.06311,-0.10386 -2.56288,2.64573 -1.49978,2.74959 -3.18703,8.0403 -3.18703,8.0403 l 3.14652,-0.12336 c 0,0 0.97851,0.77022 -0.64625,2.54078 -1.62475,1.77057 -1.9584,3.91544 -1.97923,4.93613 -0.0208,1.02068 0.22917,1.8744 0.72909,1.93689 0.49993,0.0625 0.58365,-1.31091 0.58365,-1.31091 0,0 0.29125,-1.64678 1.20779,-1.75093 0.91653,-0.10415 1.22898,1.0208 1.06234,2.18729 -0.16664,1.16649 -1.18706,3.37443 -1.27038,4.91587 -0.0833,1.54143 1.18692,4.5615 1.54103,5.12391 0.35412,0.56241 0.25094,0.41643 0.5634,0.6039 0.31245,0.18748 0.60389,0.0847 0.60389,0.0847 l -0.0221,-1.16728 c 0,0 -0.0419,-0.6665 0.27065,-0.6665 0.31246,0 0.39585,0.87454 0.39585,0.87454 l 0.0626,2.77094 c 0,0 0.5423,1.10432 -2.41559,2.31248 -2.95789,1.20815 -3.87525,1.85372 -4.02106,3.79093 -0.14582,1.9372 0.41786,3.66669 1.08443,4.22911 0.66656,0.56242 1.29065,0.93715 1.29065,0.93715 0,0 -0.10401,-2.58404 0.79169,-2.75068 0.8957,-0.16664 1.14552,0.24982 2.39534,0.27065 1.24981,0.0208 3.64547,-0.97765 3.64547,-0.97765 0,0 0.19885,-0.11062 0.31667,-0.004 0.11784,0.10679 0.18413,0.0479 0.16203,0.23567 0,0 -0.707,5.42034 0,9.8391 0.707,4.41876 0,12.28967 0,12.28967 0,0 -0.0732,1.04203 0.4787,1.01079 0.552,-0.0312 0.57444,-0.97949 0.57444,-0.97949 0,0 0.13453,-0.65666 0.56155,-0.64624 0.42702,0.0105 0.37559,1.56313 0.37559,1.56313 0,0 0.0312,1.53099 0.7291,1.39559 0.69782,-0.13539 0.54129,-0.8856 0.54129,-0.8856 0,0 -0.10461,-0.70888 0.4474,-0.74013 0.552,-0.0312 0.50079,2.21858 0.50079,2.21858 0,0 -0.0313,1.32252 0.7291,1.30169 0.76031,-0.0208 1.19733,0.12555 1.1765,0.67754 -0.0208,0.55201 0.29137,1.36377 1.27038,1.41585 0.97902,0.052 5.16627,0.1252 5.16627,0.1252 0,0 2.0204,0.13605 2.39534,-0.68675 0.37494,-0.82279 -1.05314,-2.34379 -1.05314,-2.34378 0,0 -1.65444,-1.92769 -3.34168,-2.99003 -1.68726,-1.06234 -2.62549,-0.94635 -2.62549,-0.94635 0,0 -0.76775,-3.82591 -1.47475,-6.30041 -0.707,-2.47451 -1.44346,-5.15522 -1.35509,-7.68864 0.0883,-2.53342 0.64809,-4.35984 1.23725,-5.15522 0.58917,-0.79537 2.09155,-2.32721 2.09155,-2.32721 l 13.37405,-13.22673 c 0,0 2.35667,1.82642 2.17992,5.12576 -0.17675,3.29934 0.76761,8.99193 2.10075,11.32491 1.33313,2.33299 10.45588,14.83045 10.45588,14.83045 0,0 0.0631,4.75937 1.0108,4.75937 0.94777,0 0.74934,-1.00895 0.74934,-1.00895 0,0 -0.32238,-0.8242 0.2817,-0.81378 0.60407,0.0104 0.23934,1.81353 0.23934,1.81353 0,0 -0.37448,1.71812 0.61495,1.90559 0.98944,0.18746 1.27039,-1.25935 1.27039,-1.25935 0,0 -0.0413,-0.68901 1.25015,-0.57444 1.29147,0.11457 1.42631,1.03094 1.44713,2.03078 0.0208,0.99986 2.36567,1.62631 4.36537,1.60549 1.9997,-0.0208 3.69595,0.12369 4.13338,-0.75118 0.43743,-0.87488 -0.02,-1.68646 -1.29064,-3.08209 -1.27065,-1.39562 -1.90593,-2.16722 -4.21808,-3.68783 -2.31215,-1.5206 -3.85463,-1.76977 -5.20861,-3.08208 -1.35396,-1.31231 -2.31079,-1.85426 -3.10234,-3.04157 -0.79154,-1.18733 -1.27038,-2.79119 -1.27038,-2.79119 0,0 -1.91787,-2.08201 -2.27198,-2.95688 -0.35412,-0.87488 -1.22789,-1.3129 -1.4987,-5.29147 -0.2708,-3.97856 1.99949,-7.33328 1.99949,-7.33328 0,0 1.70764,-2.76957 1.87429,-4.81093 0.16664,-2.04137 0.14545,-4.66547 0.14545,-4.66547 0,0 1.85418,0.89426 4.77041,1.64414 2.91624,0.74989 6.43702,1.60527 9.47824,1.48028 3.04121,-0.12498 3.06183,-0.18779 3.06183,-0.18779 l 1.29065,3.08209 c 0,0 0.81386,1.22959 0.14729,1.77118 -0.66657,0.54159 -0.72928,1.85462 0.93714,1.83379 1.66642,-0.0208 5.20677,-0.35535 5.20677,-0.35535 0,0 2.50581,8.92405 3.15389,12.75364 0.64808,3.82959 1.78223,12.7702 1.78223,12.77021 l 0.92794,0.16202 c 0,0 1.57603,3.10786 2.03263,2.69544 0.45661,-0.41242 0.27985,-1.11942 0.27985,-1.11942 0,0 -0.27985,-0.78064 0.19148,-0.76592 0.47134,0.0147 0.55971,1.36982 0.55971,1.36982 0,0 0.33878,2.84274 1.60548,2.85746 1.26672,0.0147 1.23725,0.0147 1.23725,0.0147 0,0 -0.0147,1.35509 1.44347,1.34036 1.45819,-0.0147 5.81803,0.0442 5.81803,0.0442 0,0 0.76592,-1.75278 -1.67913,-3.66757 -2.44505,-1.9148 -5.81803,-4.19782 -5.81803,-4.19783 0,0 -0.11917,-1.78139 -0.53577,-3.07287 -0.4166,-1.29147 -1.79144,-4.37457 -1.79144,-4.37457 0,0 -1.33342,-2.45639 -1.58339,-6.16417 -0.24996,-3.70778 -0.62415,-11.83306 -0.62415,-11.83306 0,0 0.66097,-0.46397 0.58732,-0.99422 -0.0736,-0.53025 -0.3535,-0.6039 -0.3535,-0.6039 l 0.39769,-3.40244 c 0,0 -0.17675,-0.73646 2.38613,-1.50238 2.56288,-0.76592 5.18468,-1.17833 8.83752,-3.82959 3.65284,-2.65125 8.07159,-5.92113 8.07159,-5.92113 0,0 0.23567,0.82483 0.94267,1.11942 0.707,0.29458 1.08996,0.23566 1.08996,0.23566 0,0 0.91321,4.86064 -0.97212,7.42352 -1.88534,2.56288 -1.62021,3.01948 -1.62021,3.01948 0,0 0.0294,0.86902 0.50079,0.86902 0.47133,0 -0.23567,0.67755 -0.23567,0.67755 l -0.61863,0.63336 c 0,0 -0.22094,0.29458 0.10311,0.8101 0.32404,0.51552 -0.19148,1.28143 -0.19148,1.28143 0,0 -1.30277,1.20582 -1.92768,3.6013 -0.62491,2.39548 -0.313,4.66547 -0.313,4.66547 0,0 0.39589,1.9579 2.18729,0.27065 1.7914,-1.68725 3.08334,-3.74966 3.10418,-4.37458 0.0208,-0.6249 0.54129,-0.72909 0.54129,-0.72909 0,0 2.93649,-0.95838 3.20728,-4.70782 0.2708,-3.74944 0.74935,-13.85097 0.74935,-13.85097 0,0 0.31314,-3.35399 -1.02,-4.43716 -1.33313,-1.08318 -2.62547,-2.27014 -2.62547,-2.27014 0,0 -0.39518,-0.45892 -2.47819,-0.37559 -2.08302,0.0833 -4.35248,0.99974 -4.35248,0.99974 0,0 -2.68833,1.64646 -4.60471,1.56314 -1.91637,-0.0833 -1.83202,-0.77108 -1.16545,-0.9169 0.66657,-0.1458 0.6444,-1.16642 0.6444,-1.72883 0,-0.56242 -0.0829,-1.97975 -0.41609,-2.62549 -0.33329,-0.64573 -0.87444,-0.62346 -0.81195,-2.70648 0.0625,-2.08303 0,-4.12418 0,-4.12418 0,0 -0.16699,-1.27223 1.20779,-1.27223 1.3748,0 1.31274,-1.6239 1.31275,-1.6239 0,0 -0.77196,-1.31278 -0.35535,-2.04183 0.4166,-0.72906 2.00013,-2.29114 2.37508,-1.66624 0.37494,0.62491 -0.49895,1.16729 -0.49895,1.16729 0,0 -0.66765,0.56213 0.43636,0.5413 1.10399,-0.0208 1.31223,-0.83386 1.72883,-0.3756 0.41661,0.45827 -1.16548,1.25043 -0.8322,1.77119 0.33328,0.52075 2.39556,0.0631 2.52054,-0.74935 0.12498,-0.81238 0.58216,-3.45803 1.49869,-3.31222 0.91653,0.14581 0.72902,1.91559 2.45793,2.01973 1.7289,0.10416 0.95849,-2.27081 1.58339,-2.31248 0.62492,-0.0417 0.5839,2.95804 2.50028,2.91638 1.91639,-0.0417 3.47804,-1.29068 3.54053,-3.08208 0.0625,-1.7914 -1.14498,-1.70923 -1.02,-7.39589 0.12498,-5.68666 -0.58447,-9.14463 1.76934,-9.29044 2.35382,-0.14581 2.64589,-3.39377 2.37509,-3.70623 -0.27079,-0.31246 -2.52046,1.66642 -3.18702,1.06234 -0.66657,-0.60407 0.24956,-0.35484 0.47869,-1.83378 0.22914,-1.47896 0.66827,-2.89531 0.27249,-3.12444 -0.39577,-0.22912 -0.91801,1.39506 -1.20963,1.0826 -0.29163,-0.31245 -0.83307,-6.76932 -1.33299,-6.79015 -0.49993,-0.0208 -4.35248,5.4995 -4.35248,5.4995 0,0 0.45682,-2.66699 -1.54288,-3.95847 -1.99971,-1.29147 -3.66573,-1.25014 -3.66573,-1.25014 0,0 2.69831,2.60398 2.22963,2.94768 -0.46868,0.3437 -1.40664,-0.88559 -1.40663,-0.88559 0,0 -0.82282,-1.17645 -1.4269,-1.50974 -0.60408,-0.33328 -2.76031,-1.17621 -3.01028,-0.65546 -0.24996,0.52075 1.64599,1.19676 1.64599,1.19676 0,0 0.49015,0.27176 0.3756,0.56339 -0.11458,0.29162 -0.75119,-0.10495 -0.75119,-0.10495 0,0 -1.4787,-1.07205 -3.39508,-1.71779 -1.91638,-0.64574 -3.24963,-0.83404 -3.24963,-0.83404 0,0 -0.22863,-0.11366 -0.4161,0.16755 -0.18746,0.2812 0.4474,0.50999 0.4474,0.50999 0,0 2.87509,1.09393 2.07313,1.61469 -0.80197,0.52076 -2.80222,0.0313 -2.80222,0.0313 0,0 -3.27028,-0.81338 -3.85353,0.1344 -0.58325,0.94777 1.61469,1.03104 1.61469,1.03104 0,0 1.03207,0.0843 0.56338,0.5634 -0.46867,0.4791 -1.15623,0.2283 -1.15623,0.2283 0,0 -3.21956,-0.70798 -3.57367,-0.20805 -0.35411,0.49992 1.17834,0.87455 1.17834,0.87455 0,0 1.1133,0.31238 0.76959,0.66649 -0.3437,0.35412 -2.81143,0.0736 -2.81143,0.0736 0,0 -1.4265,-0.26997 -2.27014,-0.2283 -0.84362,0.0417 -2.82248,1.07155 -2.82248,1.07155 0,0 -0.54156,0.2702 -0.33325,0.71805 0.2083,0.44784 0.96844,0.0534 0.96844,0.0534 0,0 2.65569,-0.93821 2.72859,-0.13624 0.0729,0.80196 -1.70858,0.69779 -1.70858,0.69779 0,0 -4.09347,1.83289 -3.37483,2.72858 0.71864,0.8957 2.34378,-0.707 2.34378,-0.707 0,0 1.15648,-1.37524 1.64599,-0.61494 0.48951,0.76031 -1.04209,1.28144 -1.04209,1.28144 0,0 -2.23975,0.87471 -3.46873,0.96845 -1.22899,0.0937 -2.16519,1.34403 -2.16519,1.34403 0,0 -0.0935,0.14404 0.1252,0.39401 0.21872,0.24996 0.90585,-0.2283 0.90585,-0.2283 0,0 1.98892,-1.4578 2.27013,-0.87455 0.28121,0.58324 -0.48975,1.08259 -0.48975,1.08259 0,0 -3.77032,2.32352 -3.21832,3.02133 0.552,0.69781 1.58338,-0.41794 1.58339,-0.41794 0,0 0.68791,-0.70809 1.01078,-0.27065 0.32287,0.43744 -0.79169,0.93714 -0.79169,0.93714 0,0 -0.57269,0.30291 -0.27065,0.5008 0.30204,0.19789 1.09364,-0.23015 1.09364,-0.23015 0,0 0.71868,-0.40552 2.85379,-0.3222 2.13509,0.0833 2.28118,0.67754 2.28118,0.67754 0,0 0.31225,0.73831 -2.94768,0.73831 -3.25993,0 -5.19763,0.14681 -6.65575,1.99027 -1.45812,1.8435 0.76039,0.76041 0.76039,0.76041 0,0 2.97788,-1.30183 3.05079,-0.66651 0.0729,0.63532 -1.04026,0.74936 -1.04026,0.74936 0,0 -2.96833,0.76003 -3.55157,1.96819 -0.58325,1.20815 1.34219,0.20804 1.34219,0.20804 0,0 1.86484,-1.05111 2.07314,-0.59285 0.2083,0.45827 -1.13414,1.2704 -1.13414,1.2704 0,0 -1.04946,0.5818 -1.93322,1.17097 -0.88375,0.58917 -1.08259,1.1415 -1.08259,1.1415 0,0 -0.11766,0.27986 -0.008,0.38297 0.11045,0.1031 0.86902,-0.24304 0.86902,-0.24304 0,0 1.65703,-1.19306 2.01053,-0.78064 0.3535,0.41242 -0.78064,1.1636 -0.78064,1.1636 0,0 -0.73646,0.87639 -1.87798,0.90585 -1.14151,0.0294 -2.38612,0.32404 -2.38612,0.32404 0,0 -0.54498,0.16939 -0.39033,0.53025 0.15466,0.36087 0.73646,0.29459 0.73646,0.29459 l 1.42873,-0.0294 c 0,0 0.65546,-0.0147 0.61863,0.44187 -0.0369,0.45661 -4.39666,0.57444 -4.39666,0.57444 0,0 -1.41401,0.008 -1.68649,-0.52288 -0.27249,-0.53025 0.37558,-1.06787 0.37559,-1.06787 0,0 0.84692,-0.64808 0.75855,-1.47292 -0.0883,-0.82483 -1.50974,-2.10628 -1.50974,-2.10628 l -1.90006,-2.10628 c 0,0 1.57602,-0.39768 2.10627,-1.72331 0.53025,-1.32562 3.59392,-4.77225 3.59392,-4.77225 0,0 0.26513,-0.79538 0.91321,-0.79538 0.64808,0 0.97213,-0.76592 0.97213,-0.76592 0,0 1.50237,-0.0294 1.64967,-0.79537 0.14729,-0.76592 0.0589,-1.76751 0.0589,-1.76751 0,0 -0.29648,-0.19751 -0.32772,-0.84324 -0.0313,-0.64574 -0.5947,-0.62415 -0.5947,-0.62415 v -0.7291 h 3.79093 v -2.63652 h -3.63442 l -2.2092,-31.22402 c 0,0 -0.29459,-2.50396 -0.55971,-3.47609 -0.26513,-0.97213 -0.82484,-3.06367 -0.82484,-3.06367 z m 28.42734,51.11029 c 0,0 0.11783,2.6218 1.35509,3.00476 1.23725,0.38296 3.06367,0.61862 3.06367,0.61862 0,0 -0.20621,1.17834 0.11783,1.94426 0.32404,0.76592 0.58917,1.08996 0.58917,1.08996 0,0 -0.82484,-0.11784 -2.121,0.707 -1.29617,0.82483 -5.68547,4.27146 -5.68547,4.27146 0,0 -0.44188,-3.71175 0.23567,-6.89326 0.67754,-3.1815 2.44504,-4.7428 2.44504,-4.7428 z m -33.05599,11.45379 c 0.21064,-0.002 0.42511,0.0294 0.5413,0.0294 0.26558,0 0.82864,0.13521 1.25566,0.42163 0.42702,0.28641 0.0405,0.80826 0.0405,0.80826 -0.22393,0.43746 -0.5505,-0.0258 -0.5505,-0.0258 0,0 -0.19287,-0.41694 -0.64073,-0.55234 -0.44785,-0.13584 -0.91137,-0.006 -0.91137,-0.006 0,0 -0.37515,0.0941 -0.30747,-0.35903 0.0381,-0.25485 0.30178,-0.31404 0.5726,-0.31668 z m -44.65522,11.43538 1.23725,0.0883 c 0,0 -1.50238,3.38772 -1.73805,5.9506 -0.23566,2.56288 -0.3535,4.86063 -0.3535,4.86063 0,0 -0.0147,0.1694 -0.2504,0.16203 -0.23566,-0.008 -0.19147,-0.2504 -0.19147,-0.2504 0,-0.32405 -0.41242,-3.3288 0.11783,-6.39247 0.53025,-3.06367 1.17834,-4.41876 1.17834,-4.41876 z m -0.76961,17.45408 c 0,2e-5 0.18577,0.37526 0.78986,1.94794 0.60407,1.57268 1.75094,3.43743 1.75094,3.43743 l -1.2704,1.02 -2.80223,-5.30067 c 0,0 0.7805,0.28116 1.0513,-0.0313 0.27079,-0.31245 0.48053,-1.0734 0.48053,-1.0734 z m 57.14743,4.44823 0.91689,2.29038 -0.95924,0.4382 -0.87455,-2.39534 z" />
    <circle
       style="fill:#ffffff;stroke:none;stroke-width:6;stroke-linecap:round;stroke-linejoin:round;stroke-miterlimit:4;stroke-dasharray:none"
       id="path4990"
       cx="55.275127"
       cy="273.88605"
       r="8.75" />
    <circle
       style="fill:#ffffff;stroke:none;stroke-width:6;stroke-linecap:round;stroke-linejoin:round;stroke-miterlimit:4;stroke-dasharray:none"
       id="circle5072"
       cx="492.09033"
       cy="273.70926"
       r="8.75" />
  </g>
</svg>
