<?xml version="1.0" encoding="UTF-8" standalone="no"?>
<svg
   xml:space="preserve"
   viewBox="0 0 246.14999 246.15"
   version="1.1"
   id="svg4"
   sodipodi:docname="Twitter-logo.svg"
   width="246.14999"
   height="246.14999"
   inkscape:version="1.1.2 (b8e25be833, 2022-02-05)"
   xmlns:inkscape="http://www.inkscape.org/namespaces/inkscape"
   xmlns:sodipodi="http://sodipodi.sourceforge.net/DTD/sodipodi-0.dtd"
   xmlns="http://www.w3.org/2000/svg"
   xmlns:svg="http://www.w3.org/2000/svg"><defs
   id="defs8" /><sodipodi:namedview
   id="namedview6"
   pagecolor="#505050"
   bordercolor="#eeeeee"
   borderopacity="1"
   inkscape:pageshadow="0"
   inkscape:pageopacity="0"
   inkscape:pagecheckerboard="0"
   showgrid="false"
   fit-margin-top="0"
   fit-margin-left="0"
   fit-margin-right="0"
   fit-margin-bottom="0"
   width="246.14999px"
   height="200.01262px"
   inkscape:zoom="1.1017157"
   inkscape:cx="121.62848"
   inkscape:cy="408.45384"
   inkscape:window-width="2560"
   inkscape:window-height="1334"
   inkscape:window-x="-11"
   inkscape:window-y="-11"
   inkscape:window-maximized="1"
   inkscape:current-layer="svg4" />
  <path
   fill="#1d9bf0"
   d="m 220.95,72.861309 c 0.15,2.17 0.15,4.34 0.15,6.53 0,66.730001 -50.8,143.690001 -143.69,143.690001 v -0.04 c -27.44,0.04 -54.31,-7.82 -77.41,-22.64 3.99,0.48 8,0.72 12.02,0.73 22.74,0.02 44.83,-7.61 62.72,-21.66 -21.61,-0.41 -40.56,-14.5 -47.18,-35.07 7.57,1.46 15.37,1.16 22.8,-0.87 -23.56,-4.76 -40.51,-25.46 -40.51,-49.500001 v -0.64 c 7.02,3.91 14.88,6.08 22.92,6.32 -22.19,-14.83 -29.03,-44.35 -15.63,-67.43 25.64,31.55 63.47,50.73 104.08,52.76 -4.07,-17.54 1.49,-35.92 14.61,-48.25 20.34,-19.12 52.33,-18.14 71.45,2.19 11.31,-2.23 22.15,-6.38 32.07,-12.26 -3.77,11.69 -11.66,21.62 -22.2,27.93 10.01,-1.18 19.79,-3.86 29,-7.95 -6.78,10.16 -15.32,19.01 -25.2,26.16 z"
   id="path2"
   style="fill:#ffffff" />
</svg>
